<svg width="96" height="96" viewBox="0 0 96 96" fill="none" xmlns="http://www.w3.org/2000/svg">
<path d="M87.2711 65.9911H79.2L75.4667 65.9822C77.5911 63.4222 78.08 61.5911 78.1423 61.3511L78.4356 60.1155L77.36 59.44C77.0489 59.2444 76.6134 58.9689 76.24 58.7378C76.1423 57.7333 75.9023 56.6133 75.6978 55.7689C76.3467 55.12 76.6134 54.4622 76.6756 54.2844L76.7823 54V53.6978C76.8267 50.3644 75.44 47.6266 74.4089 46.0622C75.44 44.6933 76.0712 42.5955 76.3289 39.7333C76.5689 37.0578 76.3911 34.6489 76.3823 34.5511L76.1156 31.0311L71.2534 35.2355L71.0934 33.36C72.4534 31.9555 72.7023 30.5955 72.64 29.6355C72.48 27.0133 70 25.3866 69.7156 25.2089L69.04 24.7911L68.2756 25.0133C67.3067 25.2889 66.3645 25.4311 65.4667 25.4311C64.8978 25.4311 64.4089 25.3778 64.0267 25.2978C64.1689 22.1689 62.9423 20.0889 61.8045 18.8444C60.3911 17.3066 58.8178 16.72 58.64 16.6578L56.56 15.92L56.2845 18.1155C56.1334 19.2978 55.9289 20.0711 55.7423 20.5689L48.3734 16.1689L41.2 20.5511C41.0134 20.0533 40.8089 19.28 40.6667 18.1155L40.3911 15.92L38.3111 16.6578C38.1334 16.72 36.56 17.3066 35.1467 18.8444C34 20.0889 32.7734 22.1689 32.9245 25.2978C32.5334 25.3689 32.0534 25.4311 31.4845 25.4311C30.5867 25.4311 29.6445 25.2889 28.6756 25.0133L27.9111 24.7911L27.2356 25.2089C26.9511 25.3866 24.4711 27.0222 24.3111 29.6355C24.2578 30.5866 24.4978 31.9555 25.8578 33.36L25.6978 35.2355L20.8356 31.0311L20.5689 34.5511C20.56 34.6489 20.3823 37.0578 20.6223 39.7333C20.88 42.6044 21.52 44.6933 22.5423 46.0622C21.52 47.6266 20.1245 50.3644 20.1689 53.6978V54L20.2756 54.2844C20.3378 54.4622 20.6134 55.12 21.2534 55.7689C21.0489 56.6133 20.8089 57.7422 20.7111 58.7378C20.3378 58.9689 19.9023 59.2444 19.5911 59.44L18.5156 60.1155L18.8089 61.3511C18.8711 61.5911 19.36 63.4222 21.4845 65.9822L17.9289 65.9911H9.96448C9.96448 65.9911 13.8223 73.9289 9.96448 81.5733C9.96448 81.5733 28.4534 79.6355 48.6134 79.6355C70.3556 79.6355 87.2623 81.5733 87.2623 81.5733C83.4134 73.9289 87.2711 65.9911 87.2711 65.9911Z" fill="url(#paint0_linear)"/>
<path d="M84.7201 67.7689H79.1912L71.369 67.7422L71.8756 67.1911L72.4445 66.6044C75.8223 63.3422 76.4001 60.9333 76.4001 60.9333C75.7245 60.4978 74.489 59.7333 74.489 59.7333C74.5601 58.2044 73.6623 55.0489 73.6623 55.0489C74.6667 54.5422 74.9956 53.6533 74.9956 53.6533C75.0579 49.1467 72.0356 45.8311 72.0356 45.8311C75.3245 43.9644 74.6134 34.6578 74.6134 34.6578L69.7779 38.8444L69.2445 32.6222C73.1556 29.4489 68.7734 26.6933 68.7734 26.6933C64.6223 27.8756 62.1067 26.5156 62.1067 26.5156C63.2356 20.1422 58.0445 18.3111 58.0445 18.3111C57.5112 22.5511 56.1779 22.8711 56.1779 22.8711L48.3912 18.2222L40.7734 22.8711C40.7734 22.8711 39.4401 22.5422 38.9067 18.3111C38.9067 18.3111 33.7245 20.1511 34.8445 26.5156C34.8445 26.5156 32.329 27.8756 28.1779 26.6933C28.1779 26.6933 23.7956 29.4489 27.7067 32.6222L27.1734 38.8444L22.3467 34.6667C22.3467 34.6667 21.6356 43.9733 24.9245 45.84C24.9245 45.84 21.9023 49.1556 21.9645 53.6622C21.9645 53.6622 22.2934 54.5511 23.2979 55.0578C23.2979 55.0578 22.3912 58.2133 22.4712 59.7422C22.4712 59.7422 21.2445 60.5156 20.5601 60.9422C20.5601 60.9422 21.1379 63.36 24.5156 66.6133L25.3779 67.5022H25.3867L25.6356 67.7511L17.9645 67.7689H12.5423C13.3423 70.4533 14.1334 74.9156 12.6845 79.6356C20.0712 79.2178 37.129 78.1689 48.5956 78.1689C61.4667 78.1689 77.209 79.2178 84.6045 79.6356C83.129 74.9156 83.9201 70.4444 84.7201 67.7689Z" fill="black"/>
<path d="M55.5555 35.1911C55.5555 35.1911 57.0399 33.9378 57.0577 33.9467C57.0755 33.9556 58.3821 35.4934 58.4888 36.64C58.4888 36.6489 57.1021 35.1378 55.5555 35.1911Z" fill="#4A495C"/>
<path d="M41.3156 35.3689C41.3156 35.3689 39.8312 34.1156 39.8134 34.1245C39.7956 34.1334 38.4889 35.6712 38.3823 36.8178C38.3823 36.8267 39.7689 35.3156 41.3156 35.3689Z" fill="#4A495C"/>
<path d="M55.0133 39.2801C55.0133 39.2801 54.9867 39.6712 54.6933 40.1334C54.6045 40.2756 54.4889 40.4267 54.3378 40.5689C53.7245 41.1823 53.0667 41.9378 52.3911 41.8578C51.7156 41.7778 50.9333 41.5378 50.7644 41.4667C50.5956 41.4045 50.3289 41.7245 51.7511 42.5156C51.7511 42.5156 51.44 43.0934 50.72 42.4178C50.72 42.4178 50.2578 41.8756 49.8133 41.4045C49.5289 41.1023 49.2533 40.8356 49.1022 40.7467C48.9244 40.6401 48.7733 40.5689 48.6489 40.5245C48.5689 40.4978 48.5067 40.4801 48.4444 40.4712C48.3822 40.4801 48.32 40.4978 48.24 40.5245C48.1156 40.5689 47.9644 40.6401 47.7778 40.7467C47.6267 40.8356 47.3511 41.1023 47.0667 41.4045C46.6222 41.8756 46.16 42.4178 46.16 42.4178C45.44 43.0934 45.1289 42.5156 45.1289 42.5156C46.5511 41.7245 46.2844 41.4045 46.1156 41.4667C45.9467 41.5378 45.1733 41.7778 44.4889 41.8578C43.8133 41.9378 43.1556 41.1823 42.5422 40.5689C42.3911 40.4267 42.2756 40.2756 42.1867 40.1334C41.9022 39.6801 41.8667 39.2801 41.8667 39.2801C41.3244 39.9023 41.6444 40.9689 41.6444 40.9689C41.76 41.0134 41.9378 41.1467 42.1244 41.3156C42.4533 41.6089 42.8089 42.0001 42.9511 42.1867C43.1733 42.4889 43.0311 42.9956 43.0311 43.2534C43.0311 43.5112 43.2978 43.4667 43.2978 43.4667C43.5289 43.1112 43.8844 42.8445 43.8844 42.8445C45.1822 43.0489 45.8933 43.8667 45.8933 43.8667C45.9378 44.0267 46.0622 44.2045 46.1867 44.3645C46.4089 44.6489 46.6578 44.8889 46.6578 44.8889C47.1111 45.36 47.8133 45.5023 48.2044 45.5378C48.3022 45.5467 48.3822 45.5556 48.4267 45.5556C48.4356 45.5556 48.4356 45.5556 48.4444 45.5556C48.4889 45.5556 48.5689 45.5467 48.6667 45.5378C49.0489 45.5023 49.7511 45.36 50.2133 44.8889C50.2133 44.8889 50.4622 44.6489 50.6845 44.3645C50.8089 44.2045 50.9244 44.0178 50.9778 43.8667C50.9778 43.8667 51.6889 43.0489 52.9867 42.8445C52.9867 42.8445 53.3422 43.1112 53.5733 43.4667C53.5733 43.4667 53.84 43.5112 53.84 43.2534C53.84 42.9956 53.6978 42.4889 53.92 42.1867C54.0622 42.0001 54.4178 41.6089 54.7467 41.3156C54.9333 41.1467 55.1111 41.0134 55.2267 40.9689C55.2267 40.9689 55.5556 39.9023 55.0133 39.2801Z" fill="#801621"/>
<path d="M52.9957 36.631C52.2312 35.8933 50.5423 34.5066 49.8757 34.151C49.289 33.8399 48.8268 33.6266 48.4712 33.6088C48.4623 33.6088 48.4446 33.6088 48.4357 33.6088C48.4268 33.6088 48.409 33.6088 48.4001 33.6088C48.0446 33.6177 47.5912 33.831 46.9957 34.151C46.329 34.5066 44.6401 35.8933 43.8757 36.631C43.1112 37.3688 42.6135 37.8222 42.8001 37.8577C44.0979 38.1066 45.3157 39.3688 45.8312 39.7955C46.3468 40.2222 46.3023 40.3288 47.0846 40.3822C47.8668 40.4355 47.7512 39.5822 47.7601 39.3599C47.769 39.1377 47.2001 38.8177 47.0846 38.7022C46.969 38.5866 45.5823 37.1377 45.8312 37.111C46.0801 37.0844 47.4401 38.231 47.9734 38.4444C48.0446 38.471 48.1068 38.4977 48.169 38.5066C48.169 38.5155 48.169 38.5155 48.169 38.5155C48.169 38.5155 48.249 38.5688 48.4357 38.551C48.6223 38.5688 48.7023 38.5155 48.7023 38.5155C48.7023 38.5155 48.7023 38.5155 48.7023 38.5066C48.7646 38.4888 48.8268 38.471 48.8979 38.4444C49.4312 38.231 50.8001 37.0844 51.0401 37.111C51.2801 37.1377 49.9023 38.5866 49.7868 38.7022C49.6712 38.8177 49.0934 39.1377 49.1112 39.3599C49.129 39.5822 48.9957 40.4355 49.7868 40.3822C50.5779 40.3288 50.5246 40.2133 51.0401 39.7955C51.5557 39.3777 52.7734 38.1066 54.0712 37.8577C54.2579 37.8133 53.769 37.3599 52.9957 36.631Z" fill="#831620"/>
<path d="M59.2445 21.4133C59.2445 21.4133 58.6311 24.4711 56.5067 25.1733L48.4711 20.6489L40.4445 25.1733C38.32 24.4711 37.7067 21.4133 37.7067 21.4133C35.9023 23.76 36.5067 25.7511 36.5067 25.7511H37.1823L38.1245 26.7378L39.3423 28.0089L48.48 22.4622L57.6178 28.0089L59.7778 25.7511H60.4534C60.4445 25.7511 61.0489 23.76 59.2445 21.4133Z" fill="white"/>
<path d="M38.1332 26.7378L38.8976 26.0978C38.8976 26.0978 37.0043 24.5422 37.3865 21.8933C37.3865 21.8933 35.9287 23.7689 36.5154 25.76H37.191L38.1332 26.7378Z" fill="#48465E"/>
<path d="M58.8266 26.7378L58.0621 26.0978C58.0621 26.0978 59.9821 24.5867 59.5999 21.9289C59.5999 21.9289 60.951 23.7778 60.4444 25.7511L59.7688 25.76L58.8266 26.7378Z" fill="#48465E"/>
<path d="M40.6221 29.3422C40.5777 29.28 39.3421 28.0089 39.3421 28.0089L48.4799 22.4622V24.6045L40.6221 29.3422Z" fill="#48465E"/>
<path d="M54.4977 32.9067L55.3066 32.0711L60.1155 27.1467L60.7822 28.1689C60.7822 28.1689 61.92 29.9467 63.8755 30.0267C65.8311 30.1067 68.8088 30.1956 68.5244 28.5067C68.5244 28.5067 70.4622 29.44 68.9511 31.1111C67.4399 32.7823 64.0444 31.7511 64.0444 31.7511C64.0444 31.7511 61.1288 31.1378 59.5466 29.2445L59.3155 29.4934V30.4711L55.68 34.0267C55.68 34.0178 54.7911 34.1511 54.4977 32.9067Z" fill="#791520"/>
<path d="M59.7777 28.7023L55.2444 32.1423L60.1244 27.1467C60.1244 27.1467 61.191 28.5511 62.5244 29.1023C63.8577 29.6534 64.1866 29.6978 64.9421 29.7511C65.6977 29.8134 68.1066 30.4978 68.5244 28.4978C68.5244 28.4978 69.8844 29.7423 68.871 30.7645C67.8577 31.7867 65.9555 31.9289 64.9333 31.5911C63.911 31.2534 61.431 30.4089 59.7777 28.7023Z" fill="#EA1D22"/>
<path d="M60.1244 27.1467C60.1244 27.1467 63.7066 29.7245 68.3911 28.2578L68.5244 28.5067C68.5244 28.5067 68.4177 30.6756 65.2977 29.9645C62.1688 29.2534 61.3511 28.5867 60.1244 27.1467Z" fill="#FDFFFF"/>
<path d="M42.4 32.9067L41.5911 32.0711L36.7822 27.1467L36.1155 28.1689C36.1155 28.1689 34.9778 29.9467 33.0222 30.0267C31.0666 30.1067 28.0889 30.1956 28.3733 28.5067C28.3733 28.5067 26.4355 29.44 27.9466 31.1111C29.4578 32.7823 32.8533 31.7511 32.8533 31.7511C32.8533 31.7511 35.7689 31.1378 37.3511 29.2445L37.5822 29.4934V30.4711L41.2178 34.0267C41.2178 34.0178 42.1066 34.1511 42.4 32.9067Z" fill="#791520"/>
<path d="M37.1199 28.7023L41.6533 32.1423L36.7733 27.1467C36.7733 27.1467 35.7066 28.5511 34.3733 29.1023C33.0399 29.6534 32.7111 29.6978 31.9555 29.7511C31.1999 29.8134 28.7911 30.4978 28.3733 28.4978C28.3733 28.4978 27.0133 29.7423 28.0266 30.7645C29.0488 31.7867 30.9422 31.9289 31.9644 31.5911C32.9866 31.2534 35.4666 30.4089 37.1199 28.7023Z" fill="#EA1D22"/>
<path d="M36.7732 27.1467C36.7732 27.1467 33.191 29.7245 28.5066 28.2578L28.3732 28.5067C28.3732 28.5067 28.4799 30.6756 31.5999 29.9645C34.7199 29.2534 35.5466 28.5867 36.7732 27.1467Z" fill="#FDFFFF"/>
<path d="M54.6845 49.5644C52.7733 50.3378 50.8978 50.9067 49.8489 51.1644C49.6533 51.2089 49.4845 51.2533 49.36 51.28C49.36 51.28 49.1556 51.3511 49.1022 51.1911C49.04 51.0311 48.96 50.48 49.3956 50.2755C49.8222 50.0711 52.6667 48.3733 53.4756 47.6089C53.5467 47.5467 53.6356 47.4667 53.7511 47.3867C54.0356 47.6355 54.3467 47.9911 54.5333 48.4533C54.6489 48.7822 54.72 49.1467 54.6845 49.5644Z" fill="#4A495C"/>
<path d="M58.9688 47.36C58.791 47.4845 58.6044 47.6089 58.4088 47.7334C58.3999 47.7334 58.391 47.7245 58.3821 47.7245C58.0266 47.52 57.8488 47.1111 58.0444 46.8534C58.2488 46.5956 58.9777 46.1245 59.2888 45.7067C59.5999 45.2889 60.3466 44.1156 60.071 43.3423C60.071 43.3423 59.7244 43.2356 59.2355 43.8578C58.871 44.32 58.5155 44.5067 58.2666 44.3734C58.5421 44.1245 58.711 43.8934 58.711 43.7245C58.7377 42.8178 58.6488 42.4356 58.2221 41.7512C58.0444 41.4667 57.5377 40.6934 56.9777 39.8578C56.1955 38.6845 55.2977 37.3689 55.0044 37.04C54.4977 36.48 51.8933 33.6356 50.2666 33.0134C48.6399 32.3912 48.5955 31.8845 46.1066 33.28C43.6177 34.6756 41.8577 36.9067 40.3733 38.9956C40.1244 39.3423 39.9021 39.6623 39.7066 39.9467C38.711 41.36 38.2844 42.0178 38.2132 42.5423C38.1244 43.1645 38.0977 43.6534 38.2844 43.92C38.2844 43.92 37.991 44.2489 36.9688 43.36C36.9688 43.36 36.1066 45.2445 38.6399 46.9867C38.6399 46.9867 38.8799 47.8312 38.5066 47.8578C38.5066 47.8578 36.5244 46.64 35.911 44.8178C35.3066 42.9956 36.3288 41.3334 37.4488 39.8667C38.5688 38.4 40.6933 35.36 41.1555 35.0045C41.1555 35.0045 41.7777 34.9778 42.1777 34.6223C42.5777 34.2667 43.6088 33.1467 43.1021 32.5423C42.5866 31.9467 42.3377 31.7245 42.2577 31.6178C42.1777 31.5112 42.0355 31.44 42.4621 30.9512C42.6577 30.72 43.271 29.9112 44.1866 29.1289C45.2266 28.2489 46.6666 27.4223 48.3644 27.5378C50.1333 27.6623 51.511 28.2223 52.6044 29.0312C53.4844 29.68 54.1777 30.4978 54.7377 31.3867C54.7377 31.3867 53.7155 32.3912 53.671 32.5334C53.6266 32.6756 53.511 33.6356 54.0888 34.1156C54.6666 34.5956 55.2444 34.8978 55.7777 34.9512C55.7777 34.9512 58.3555 38.3734 58.5155 38.5956C58.6666 38.8178 60.4266 41.0489 60.6844 41.7512C60.9333 42.4356 61.8844 45.2978 58.9688 47.36Z" fill="#4A495C"/>
<path d="M47.6889 50.4711V51.2977C47.68 51.2977 47.6711 51.2977 47.6533 51.2977C45.6089 51.12 42.3378 49.7155 42.3378 49.7155V48.6311C42.5955 47.7066 43.2355 47.4755 43.2355 47.4755C43.8044 48.1244 47.6889 50.4711 47.6889 50.4711Z" fill="#4A495C"/>
<path d="M54.6846 49.5644C52.7734 50.3377 50.8979 50.9066 49.849 51.1644C51.0757 50.4533 53.5646 48.9955 54.5246 48.4533C54.649 48.7822 54.7201 49.1466 54.6846 49.5644Z" fill="#FCFBFC"/>
<path d="M47.6533 51.2977C45.6089 51.1199 42.3378 49.7155 42.3378 49.7155V48.7199C43.44 49.4666 46.5422 50.8177 47.6533 51.2977Z" fill="#FCFBFC"/>
<path d="M56.9868 39.8489C56.2046 38.6756 55.3068 37.36 55.0135 37.0311C54.5068 36.4711 51.9024 33.6267 50.2757 33.0045C48.649 32.3822 48.6046 31.8756 46.1157 33.2711C43.6268 34.6667 41.8668 36.8978 40.3824 38.9867C40.1335 39.3333 39.9113 39.6533 39.7157 39.9378C40.2579 38.6489 41.769 35.4133 44.0624 33.4933C46.969 31.0667 49.0135 29.9645 53.3246 33.9556C53.3068 33.9467 56.409 37.3422 56.9868 39.8489Z" fill="#FCFBFC"/>
<path d="M46.9421 46.3911V47.92C45.7777 47.3511 45.6533 46.5155 45.6533 46.5155C45.8666 46.0533 46.391 46.0266 46.391 46.0266C46.3999 46.0355 46.4088 46.0444 46.4177 46.0533C46.6399 46.2489 46.9421 46.3911 46.9421 46.3911Z" fill="#FDFDF9"/>
<path d="M52.5955 29.0312C48.8177 27.9112 45.4933 28.7112 44.1777 29.1289C45.2177 28.2489 46.6577 27.4223 48.3555 27.5378C50.1244 27.6623 51.5022 28.2223 52.5955 29.0312Z" fill="#FCFBFC"/>
<path d="M46.9424 46.3911V47.6445C46.3201 47.1911 46.3557 46.3911 46.409 46.0445C46.6401 46.2489 46.9424 46.3911 46.9424 46.3911Z" fill="#8D89A1"/>
<path d="M49.849 46.3911V47.92C51.0134 47.3511 51.1379 46.5155 51.1379 46.5155C50.9246 46.0533 50.4001 46.0266 50.4001 46.0266C50.3912 46.0355 50.3823 46.0444 50.3734 46.0533C50.1512 46.2489 49.849 46.3911 49.849 46.3911Z" fill="#FDFDF9"/>
<path d="M49.849 46.3911V47.6445C50.4712 47.1911 50.4357 46.3911 50.3823 46.0445C50.1512 46.2489 49.849 46.3911 49.849 46.3911Z" fill="#8D89A1"/>
<path d="M40.9866 44.0445C40.9866 44.0445 40.6755 44.0623 40.4266 44.0712C40.2933 44.0712 40.1778 44.0623 40.1333 44.0445C40.0178 43.9912 39.6355 43.2889 39.6267 42.96C39.6178 42.8623 39.6978 42.6667 39.8044 42.4534C40.0622 41.9289 40.5155 41.2356 40.5155 41.2356C40.5155 41.2356 40.48 42.4889 40.4711 42.8623C40.4622 43.2356 40.9866 44.0445 40.9866 44.0445Z" fill="#4A495C"/>
<path d="M40.4267 44.0711C40.2933 44.0711 40.1778 44.0622 40.1333 44.0444C40.0178 43.9911 39.6355 43.2888 39.6267 42.9599C39.6178 42.8622 39.6978 42.6666 39.8044 42.4533C39.8755 42.8622 40.0355 43.6088 40.4267 44.0711Z" fill="#FFFFFE"/>
<path d="M55.7866 44.0445C55.7866 44.0445 56.0977 44.0623 56.3466 44.0712C56.4799 44.0712 56.5955 44.0623 56.6399 44.0445C56.7555 43.9912 57.1377 43.2889 57.1466 42.96C57.1555 42.8623 57.0755 42.6667 56.9688 42.4534C56.711 41.9289 56.2577 41.2356 56.2577 41.2356C56.2577 41.2356 56.2932 42.4889 56.3021 42.8623C56.311 43.2356 55.7866 44.0445 55.7866 44.0445Z" fill="#4A495C"/>
<path d="M56.3467 44.0711C56.4801 44.0711 56.5956 44.0622 56.6401 44.0444C56.7556 43.9911 57.1379 43.2888 57.1467 42.9599C57.1556 42.8622 57.0756 42.6666 56.969 42.4533C56.8979 42.8622 56.729 43.6088 56.3467 44.0711Z" fill="#FFFFFE"/>
<path d="M45.431 45.0133C45.431 45.0133 44.9154 45.2533 44.2754 45.6089C43.4843 46.0444 42.5065 46.6577 42.1154 47.1822C41.4043 48.1333 41.2443 48.8266 41.5199 49.6978C41.8043 50.5689 42.7199 51.7689 42.8799 51.8578C42.8799 51.8578 42.0176 52.08 40.1243 50.0622C40.1243 50.0622 38.6843 48.3555 40.4799 46.0711C40.4799 46.0711 38.6221 46.24 37.9999 45.0666C37.9465 44.9689 37.9021 44.8711 37.8754 44.7555C37.8754 44.7555 40.3021 45.0755 42.7288 44.56C43.3065 44.4355 43.9288 44.3022 44.471 44.0622C44.471 44.0622 44.791 44.0089 45.1199 44.3377C45.3777 44.6044 45.431 45.0133 45.431 45.0133Z" fill="#7C141E"/>
<path d="M42.8088 44.5511C42.4177 44.7911 41.9377 45.0756 41.6088 45.2178C40.9954 45.4756 39.5999 45.8667 38.8976 45.6623C38.3821 45.5112 38.2132 45.3423 37.9999 45.0845C37.9465 44.9867 37.9021 44.8889 37.8754 44.7734C37.8754 44.7645 40.3732 45.0667 42.8088 44.5511Z" fill="#FCFBFC"/>
<path d="M44.7733 44.1155C44.7733 44.1155 43.1911 44.7467 42.3466 45.28C41.5022 45.8222 40.3644 46.4355 40.0089 47.04C39.6533 47.6444 39.5644 48.0889 39.5466 48.4267C39.52 48.7644 39.6177 49.6978 40.3822 50.4533C40.3822 50.4533 40.7733 50.8 41.0666 50.9689C41.0666 50.9689 40.3111 49.4844 40.6311 48.6311C40.9511 47.7689 41.3066 47.2711 41.8311 46.8711C42.3555 46.4711 43.52 45.9022 44.0622 45.7155C44.6044 45.5378 45.4755 45.28 45.5377 45.0578C45.5911 44.8533 45.12 44.1778 44.7733 44.1155Z" fill="#F8202B"/>
<path d="M44.0979 45.7156C44.1245 45.7067 41.8223 46.3378 41.0312 47.6445C40.2401 48.9512 40.4534 50.0623 40.7734 50.5956C41.0934 51.129 41.5734 51.4934 42.9245 51.8667C42.9245 51.8667 41.7512 50.6756 41.5734 49.7156C41.3956 48.7556 41.4934 48.0801 41.8223 47.6089C42.1512 47.1289 43.3423 46.0623 44.0979 45.7156Z" fill="#F8DE0E"/>
<path d="M51.4755 45.0133C51.4755 45.0133 51.991 45.2533 52.631 45.6089C53.4221 46.0444 54.3999 46.6577 54.791 47.1822C55.5021 48.1333 55.6621 48.8266 55.3866 49.6978C55.1021 50.5689 54.1866 51.7689 54.0266 51.8578C54.0266 51.8578 54.8888 52.08 56.7821 50.0622C56.7821 50.0622 58.2221 48.3555 56.4266 46.0711C56.4266 46.0711 58.2844 46.24 58.9066 45.0666C58.9599 44.9689 59.0043 44.8711 59.031 44.7555C59.031 44.7555 56.6044 45.0755 54.1777 44.56C53.5999 44.4355 52.9777 44.3022 52.4355 44.0622C52.4355 44.0622 52.1155 44.0089 51.7866 44.3377C51.5288 44.6044 51.4755 45.0133 51.4755 45.0133Z" fill="#7C141E"/>
<path d="M54.0977 44.5511C54.4888 44.7911 54.9688 45.0756 55.2977 45.2178C55.911 45.4756 57.3065 45.8667 58.0088 45.6623C58.5243 45.5112 58.6932 45.3423 58.9065 45.0845C58.9599 44.9867 59.0043 44.8889 59.031 44.7734C59.031 44.7645 56.5332 45.0667 54.0977 44.5511Z" fill="#FCFBFC"/>
<path d="M52.1333 44.1155C52.1333 44.1155 53.7156 44.7467 54.56 45.28C55.4044 45.8222 56.5422 46.4355 56.8978 47.04C57.2533 47.6444 57.3422 48.0889 57.36 48.4267C57.3867 48.7644 57.2889 49.6978 56.5244 50.4533C56.5244 50.4533 56.1333 50.8 55.84 50.9689C55.84 50.9689 56.5955 49.4844 56.2755 48.6311C55.9555 47.7689 55.6 47.2711 55.0756 46.8711C54.5511 46.4711 53.3867 45.9022 52.8444 45.7155C52.3022 45.5289 51.4311 45.28 51.3689 45.0578C51.3067 44.8355 51.7867 44.1778 52.1333 44.1155Z" fill="#F8202B"/>
<path d="M52.8088 45.7156C52.7821 45.7067 55.0843 46.3378 55.8754 47.6445C56.6665 48.9512 56.4532 50.0623 56.1332 50.5956C55.8132 51.129 55.3332 51.4934 53.9821 51.8667C53.9821 51.8667 55.1554 50.6756 55.3332 49.7156C55.511 48.7556 55.4132 48.0801 55.0843 47.6089C54.7554 47.1289 53.5643 46.0623 52.8088 45.7156Z" fill="#F8DE0E"/>
<path d="M45.8311 40.6933C45.8222 41.2 45.0489 41.2355 44.5422 41.1555C44.1511 41.0933 43.9377 40.6489 43.8133 40.3022C43.7777 40.1955 43.7422 40.0978 43.7155 40.0355C43.6 39.7333 43.8311 39.3422 43.8311 39.3422C43.8844 39.36 44.3644 39.5733 44.3289 39.92C44.2844 40.2933 44.7644 40.5689 45.2089 40.4355C45.6533 40.3022 45.8311 40.6933 45.8311 40.6933Z" fill="#F8DE0E"/>
<path d="M43.8755 39.8578C43.8666 39.9734 43.84 40.1689 43.8133 40.3111C43.7777 40.2045 43.7422 40.1067 43.7155 40.0445C43.6 39.7422 43.8311 39.3511 43.8311 39.3511C43.8577 39.4667 43.8933 39.7156 43.8755 39.8578Z" fill="#FFFCD4"/>
<path d="M42.1335 41.3244C41.9468 41.1555 41.769 41.0222 41.6535 40.9778C41.6535 40.9778 41.3246 39.9111 41.8757 39.2889C41.8757 39.2889 41.9023 39.68 42.1957 40.1422C42.1601 40.3467 42.1068 40.96 42.1335 41.3244Z" fill="#F8DE0E"/>
<path d="M51.04 40.6933C51.0489 41.2 51.8223 41.2355 52.3289 41.1555C52.72 41.0933 52.9334 40.6489 53.0578 40.3022C53.0934 40.1955 53.1289 40.0978 53.1556 40.0355C53.2711 39.7333 53.04 39.3422 53.04 39.3422C52.9867 39.36 52.5067 39.5733 52.5423 39.92C52.5867 40.2933 52.1067 40.5689 51.6623 40.4355C51.2178 40.3022 51.04 40.6933 51.04 40.6933Z" fill="#F8DE0E"/>
<path d="M54.1955 37.92C54.1955 37.92 53.0488 38.1422 51.5288 39.52C50.0088 40.8978 49.4577 40.3822 49.351 40.2755C49.2444 40.1689 48.5421 39.5822 49.351 39.0222C50.1599 38.4622 51.1821 37.6355 51.5821 37.3155C51.9821 36.9955 52.9777 36.7111 53.1821 36.7466L54.1955 37.92Z" fill="#EA1D22"/>
<path d="M51.5377 37.84C51.5377 37.84 50.9066 39.1111 50.7732 39.2889C50.6399 39.4667 50.391 39.8044 50.1243 39.8044C49.8666 39.8044 49.7688 39.6267 49.7954 39.4755C49.8221 39.3244 50.4888 38.8978 50.7732 38.6044C51.0577 38.3111 51.5377 37.84 51.5377 37.84Z" fill="#FFFCD4"/>
<path d="M52.9955 39.8578C53.0044 39.9734 53.0311 40.1689 53.0578 40.3111C53.0933 40.2045 53.1289 40.1067 53.1556 40.0445C53.2711 39.7422 53.04 39.3511 53.04 39.3511C53.0222 39.4667 52.9867 39.7156 52.9955 39.8578Z" fill="#FFFCD4"/>
<path d="M54.7467 41.3244C54.9334 41.1555 55.1112 41.0222 55.2267 40.9778C55.2267 40.9778 55.5556 39.9111 55.0045 39.2889C55.0045 39.2889 54.9779 39.68 54.6845 40.1422C54.7112 40.3467 54.7734 40.96 54.7467 41.3244Z" fill="#F8DE0E"/>
<path d="M50.729 36.0355C50.6312 36.48 49.0934 37.1111 48.8534 37.2444C48.8179 37.2622 48.7823 37.28 48.7379 37.2888C48.6401 37.3155 48.5334 37.3333 48.4356 37.3422C48.3379 37.3333 48.2312 37.3244 48.1334 37.2888C48.089 37.28 48.0534 37.2622 48.0179 37.2444C47.769 37.1111 46.2401 36.48 46.1423 36.0355C46.0445 35.5911 45.8045 36.3288 46.0001 36.7288C46.1867 37.1288 46.1778 37.1466 46.4623 37.44C46.7379 37.7333 47.6445 38.3733 48.0712 38.5155C48.1156 38.5333 48.1601 38.5422 48.2045 38.5511C48.3023 38.5777 48.3823 38.5955 48.4445 38.6044C48.5067 38.5955 48.5867 38.5777 48.6845 38.5511C48.729 38.5422 48.7645 38.5244 48.8179 38.5155C49.2445 38.3822 50.1512 37.7333 50.4267 37.44C50.7023 37.1466 50.6934 37.1288 50.8801 36.7288C51.0668 36.3377 50.8356 35.5911 50.729 36.0355Z" fill="#EA1D22"/>
<path d="M50.6578 43.1822C50.6401 43.04 50.6223 42.8978 50.5601 42.7555C50.3734 42.2578 50.089 41.76 49.7512 41.3511C49.4223 40.96 48.9601 40.56 48.4356 40.4711C48.3734 40.48 48.3112 40.4978 48.2312 40.5244C47.6179 40.7467 47.1201 41.2267 46.7734 41.7778C46.409 42.3467 46.2579 42.9511 46.1601 43.6089C46.1156 43.9022 46.1423 44.1867 46.2845 44.4533C46.6401 45.12 47.4934 45.4666 48.2045 45.5378C48.3023 45.5466 48.3823 45.5555 48.4267 45.5555C48.4356 45.5555 48.4356 45.5555 48.4445 45.5555C48.489 45.5555 48.569 45.5466 48.6667 45.5378C49.2534 45.4755 49.7512 45.2622 50.2045 44.8978C50.4001 44.7378 50.5778 44.5422 50.6578 44.3111C50.7467 44.0444 50.7112 43.7689 50.6845 43.4933C50.6756 43.3955 50.6667 43.2889 50.6578 43.1822Z" fill="#EA1D22"/>
<path d="M48.6133 42.16C48.5778 42.0978 48.5422 42.0622 48.5067 42.0355C48.4978 42.0266 48.4889 42.0267 48.4711 42.0178C48.4622 42.0178 48.4622 42.0178 48.4533 42.0178C48.4445 42.0178 48.4267 42.0178 48.4178 42.0178C48.4089 42.0178 48.4089 42.0178 48.4 42.0266C48.4 42.0266 48.3911 42.0266 48.3822 42.0355C48.3822 42.0355 48.3733 42.0444 48.3645 42.0444C48.3556 42.0533 48.3467 42.0533 48.3378 42.0711C48.3289 42.08 48.3289 42.08 48.32 42.0889C48.3022 42.1066 48.2845 42.1333 48.2578 42.1689C48.0711 42.4889 47.8667 43.0133 47.8933 43.3866C47.92 43.6622 47.92 43.84 48.0178 43.9733C48.0533 44.0267 48.1156 44.0711 48.1867 44.1155C48.2667 44.16 48.3467 44.1866 48.4267 44.2044C48.5067 44.1955 48.5867 44.16 48.6667 44.1155C48.7378 44.0711 48.8 44.0267 48.8356 43.9733C48.9422 43.84 48.9422 43.6533 48.96 43.3778C49.0044 43.0044 48.8 42.48 48.6133 42.16Z" fill="#FDFDF9"/>
<path d="M32.5776 33.1378L29.502 33.2978L28.8087 40.3733L30.5243 41.9822L34.5509 41.0222C34.5509 41.0222 35.9732 38.4711 36.3465 38.16C36.3465 38.16 36.3643 36.4267 36.7732 35.4756C37.1909 34.5245 38.2132 32.9689 38.2132 32.9689H37.902L34.8887 35.9911L34.5243 38.8178L34.142 40.6933L30.8087 41.4756C30.8087 41.4756 31.6354 34.9245 31.6976 34.7467C31.7509 34.5689 32.5776 33.1378 32.5776 33.1378Z" fill="#A5A7C4"/>
<path d="M32.1245 34.8355L29.5023 33.2978L33.5111 33.0755L32.1245 34.8355Z" fill="#FCFBFE"/>
<path d="M30.5244 41.9822C30.5244 41.9822 32.3911 41.1644 32.4089 41.0933C32.4266 41.0222 32.9866 34.9156 32.9866 34.9156L37.0133 31.8311L36.5955 31.6089L32.48 33.1733L31.0577 34.2044L30.5244 41.9822Z" fill="#48465E"/>
<path d="M33.9111 40.5244L34.4711 35.6978L37.7955 33.0667C37.7955 33.0667 36.4266 34.72 36.2133 35.4844C36 36.2489 35.8577 37.9289 35.8577 37.9289L34.1422 40.6844L33.92 40.7378V40.5244H33.9111Z" fill="#F8DE0E"/>
<path d="M63.3778 40.8444C63.7244 41.0311 64.3467 41.3511 64.8622 41.6267L62.32 41.0222C62.32 41.0222 60.8267 38.5867 60.4533 38.2756C60.4533 38.2756 60.5067 36.4267 60.0978 35.4844C59.68 34.5333 58.6578 32.9778 58.6578 32.9778H58.9689L61.9822 36L62.3467 38.8267L62.7289 40.7022L63.3778 40.8444Z" fill="#A5A7C4"/>
<path d="M68.0798 40.3734L66.3643 41.9734L66.1243 41.92L66.0798 41.4756H66.0887C66.0887 41.4756 66.0798 41.3867 66.0532 41.2267V41.2C65.8932 39.9556 65.2532 34.9067 65.1998 34.7467C65.1376 34.5689 64.3198 33.1289 64.3198 33.1289L67.3954 33.2889L68.0798 40.3734Z" fill="#A5A7C4"/>
<path d="M65.1289 34.6222L67.3778 33.2978L63.369 33.0755L65.1289 34.6222Z" fill="#FCFBFE"/>
<path d="M62.9689 40.5244L62.4089 35.6978L59.0844 33.0667C59.0844 33.0667 60.4533 34.72 60.6666 35.4844C60.88 36.2489 61.0222 37.9289 61.0222 37.9289L62.7377 40.6844L62.96 40.7378V40.5244H62.9689Z" fill="#F8DE0E"/>
<path d="M31.6889 43.4045L34.3822 45.6089C34.3822 45.6089 33.9111 43.9823 33.9111 43.9556C33.9111 43.9289 33.84 42.7911 33.84 42.7911L31.6889 43.4045Z" fill="#A5A7C4"/>
<path d="M33.9111 43.9466L31.6889 43.4044L33.8489 42.7822L33.9111 43.9466Z" fill="white"/>
<path d="M65.0932 43.1466C65.0932 43.1466 64.7288 43.44 64.2754 43.8222C63.511 44.4533 62.4799 45.2977 62.4088 45.3511C62.3377 45.3955 62.5688 44.2755 62.7465 43.4489C62.8532 42.9689 62.9421 42.5866 62.9421 42.5866L65.0932 43.1466Z" fill="white"/>
<path d="M64.2754 43.8222C63.511 44.4533 62.4799 45.2978 62.4088 45.3511C62.3377 45.3955 62.5688 44.2755 62.7465 43.4489C63.1199 43.5289 63.9643 43.7422 64.2754 43.8222Z" fill="#A5A7C4"/>
<path d="M43.1467 51.1733L44.7645 52.7911H43.3334L45.849 54.6933L45.1645 53.5822H46.1867L43.1467 51.1733Z" fill="#A5A7C4"/>
<path d="M46.1867 53.5822L45.2001 51.7689L43.1467 51.1733L46.1867 53.5822Z" fill="#494959"/>
<path d="M53.7422 51.1733L52.1244 52.7911H53.5555L51.0489 54.6933L51.7244 53.5822H50.7022L53.7422 51.1733Z" fill="#A5A7C4"/>
<path d="M50.7022 53.5822L51.6889 51.7689L53.7422 51.1733L50.7022 53.5822Z" fill="#494959"/>
<path d="M68.9245 44.7466C66.4534 46.8089 61.4579 50.5955 61.4579 50.5955L54.2756 55.5555L47.5468 59.8578C47.5379 59.8666 47.529 59.8666 47.529 59.8755L43.8756 62.2133C43.8668 62.2133 43.8579 62.2222 43.8579 62.2222C42.1245 63.2711 39.0934 65.1022 38.969 65.1555C38.8623 65.2 38.6579 65.2178 38.5245 65.2266C38.6401 64.8889 38.7823 64.3644 38.7823 64.3644C38.7823 64.3644 38.9779 64.2311 39.3156 64.0089C41.2712 62.6844 48.1156 58.0533 51.3868 55.6089C51.9556 55.1911 52.7734 54.5689 53.7601 53.8044C53.8934 53.7066 54.009 53.6089 54.1245 53.52C54.1512 53.5022 54.1779 53.4755 54.2045 53.4578C57.7779 50.6844 70.3912 40.6844 70.9156 39.7867C70.9156 39.7867 70.9245 39.8489 70.9334 39.9733C70.9868 40.6489 71.0223 43.0044 68.9245 44.7466Z" fill="white"/>
<path d="M68.0801 44.5511C66.6401 45.8222 61.9024 49.5733 60.5512 50.5777C59.2001 51.5822 55.0579 54.5777 54.6224 54.9333C54.1957 55.2888 51.0135 57.5822 50.6135 57.84C50.4001 57.9733 48.9246 58.9599 47.5379 59.8755C47.529 59.8844 47.5201 59.8844 47.5201 59.8933C46.2935 60.7111 45.1379 61.4666 45.0135 61.5377C44.9424 61.5822 44.489 61.8488 43.8668 62.2311C43.8579 62.2311 43.849 62.2399 43.849 62.2399C42.1246 63.3866 39.2712 65.1022 39.1468 65.1466C39.0401 65.1911 38.649 65.2355 38.5157 65.2444C38.6312 64.9066 38.7735 64.3822 38.7735 64.3822C38.7735 64.3822 38.969 64.2488 39.3068 64.0266C40.5068 63.3777 42.5157 62.2666 44.0979 61.2977C46.5246 59.8044 53.2357 55.1199 55.6979 53.2266C58.1601 51.3333 64.5868 46.1866 65.8312 45.1377C67.0757 44.0888 69.1646 42.4444 69.4312 42.1333C69.4312 42.1244 69.5201 43.28 68.0801 44.5511Z" fill="#4B4B5B"/>
<path d="M71.4491 39.2711C71.4491 39.2711 71.3336 42.1867 70.578 43.2622C69.8224 44.3378 68.6936 45.1734 68.0713 45.7245C67.4491 46.2756 61.6447 50.6222 61.6447 50.6222L55.4224 54.96L48.8447 59.3334L39.138 65.6445V65.8845C39.138 65.8845 39.378 65.9023 39.5202 65.8134C39.6713 65.7245 46.9869 61.5289 46.9869 61.5289L54.8091 56.6222C54.8091 56.6222 68.5869 47.8311 71.7247 44.2311C71.7247 44.2311 73.2624 42.6934 73.1291 37.9556C73.1469 37.9467 72.4447 38.4978 71.4491 39.2711Z" fill="white"/>
<path d="M38.6045 67.3511C38.6045 67.3511 36.5245 64.2845 36.2134 62.5689C36.2134 62.5689 35.929 62.1511 35.8845 62.7467C35.8401 63.3422 36.1245 64.7022 36.5334 65.5022C36.9512 66.3022 37.4223 67.0844 37.4223 67.0844L38.6045 67.3511Z" fill="white"/>
<path d="M38.4268 63.44C38.4268 63.44 37.6446 63.84 37.5824 64.0445C37.5201 64.2489 37.6001 65.4222 38.249 66.2045C38.8979 66.9867 39.1379 67.3867 40.089 66.7378L40.2668 66.6222C40.2668 66.6222 40.6224 67.04 40.6401 67.3511H37.6801C37.6801 67.3511 37.3957 67.1911 37.3424 66.7289C37.289 66.3378 37.929 66.4533 37.929 66.4533L37.209 65.0845C37.209 65.0845 36.4713 62.7022 36.809 62.0622C36.7913 62.0622 37.1201 61.76 38.4268 63.44Z" fill="#4B4B5B"/>
<path d="M47.6625 57.1022L47.1825 57.4488L46.5248 57.9199L46.4714 57.9555L42.6136 55.4933L35.4314 50.5333C35.4314 50.5333 30.4359 46.7377 27.9648 44.6844C25.8581 42.9333 25.8936 40.5777 25.9559 39.9111C25.9647 39.7955 25.9736 39.7244 25.9736 39.7244C26.4981 40.6311 39.1114 50.6222 42.6848 53.3955C42.7114 53.4133 42.7381 53.4399 42.7648 53.4577C42.8803 53.5466 42.9959 53.6355 43.1292 53.7422C44.1248 54.5066 44.9425 55.1288 45.5025 55.5466C46.1248 55.9999 46.8537 56.5333 47.6625 57.1022Z" fill="white"/>
<path d="M41.1823 53.1466C42.4446 54.1155 44.8268 55.8221 47.1735 57.4488L46.5157 57.9199C46.3912 57.8399 46.3112 57.7866 46.2668 57.7599C45.8668 57.5021 42.6846 55.2088 42.2579 54.8532C41.8312 54.4977 37.689 51.4932 36.329 50.4977C34.969 49.5021 30.2401 45.7421 28.8001 44.471C27.3601 43.1999 27.4401 42.0533 27.4401 42.0533C27.7068 42.3644 29.7957 44.0088 31.0401 45.0577C32.2846 46.1066 38.7201 51.2532 41.1823 53.1466Z" fill="#4B4B5B"/>
<path d="M41.4579 54.8888L46.2845 58.0977L45.5112 58.6488L45.4668 58.6844L42.0623 56.5511C42.0623 56.5511 28.2934 47.76 25.1468 44.1688C25.1023 44.1244 23.5557 42.4533 23.689 37.7866C23.689 37.7866 24.5246 38.5688 25.4401 39.2088C25.4401 39.2088 25.4401 39.3066 25.449 39.4666C25.4934 40.2044 25.6801 42.32 26.3023 43.2C27.0579 44.2755 28.1868 45.1111 28.809 45.6622C29.4312 46.2044 35.2357 50.5599 35.2357 50.5599L41.4579 54.8888Z" fill="white"/>
<path d="M58.3734 65.1645C58.3645 65.1645 58.3556 65.1645 58.3468 65.1645C58.2668 65.1556 58.1779 65.1467 58.0979 65.1378C58.0356 65.1289 57.9734 65.1111 57.9379 65.0934C57.8134 65.0489 54.7823 63.2089 53.049 62.16C53.0401 62.16 53.0401 62.1511 53.0312 62.1511L50.5245 60.5511L51.129 60.1422L51.5734 59.84C54.1156 61.6 56.5512 63.2445 57.6001 63.9556C57.9379 64.1867 58.1334 64.3111 58.1334 64.3111C58.1334 64.3111 58.2579 64.8178 58.3734 65.1645Z" fill="white"/>
<path d="M58.3646 65.1556C58.3646 65.1467 58.2935 65.1467 58.2846 65.1467C58.2579 65.1467 58.2312 65.1378 58.2046 65.1378C58.1512 65.1289 58.089 65.1289 58.0357 65.1201C57.9823 65.1112 57.929 65.1023 57.8668 65.0934C57.8135 65.0845 57.7601 65.0756 57.7157 65.0489C57.6979 65.0401 57.6712 65.0223 57.6535 65.0134C57.5823 64.9689 57.5023 64.9245 57.4312 64.8889C57.3157 64.8267 57.209 64.7556 57.0935 64.6934C56.9512 64.6045 56.809 64.5245 56.6579 64.4356C56.489 64.3378 56.3201 64.2312 56.1512 64.1334C55.9646 64.0178 55.7779 63.9023 55.5912 63.7956C55.4757 63.7245 55.3601 63.6534 55.2446 63.5823C55.2357 63.5734 55.2179 63.5645 55.209 63.5556C54.4623 63.0934 53.6712 62.5956 53.0312 62.1689C53.0223 62.1689 53.0223 62.1601 53.0135 62.1601C52.3912 61.7867 51.9379 61.5112 51.8668 61.4667C51.7779 61.4134 51.2179 61.0489 50.489 60.5689L50.5068 60.5512L51.1112 60.1423C51.7779 60.5867 52.3557 60.9512 52.7912 61.2178C54.3823 62.1956 56.3823 63.2978 57.5823 63.9467C57.7246 64.0445 57.8668 64.1423 58.009 64.2312C58.0357 64.2489 58.0535 64.2667 58.0801 64.2756C58.089 64.2845 58.0979 64.2845 58.1068 64.2934C58.1157 64.3023 58.1157 64.3201 58.1246 64.3378C58.2046 64.6134 58.2846 64.8889 58.3646 65.1556Z" fill="#4B4B5B"/>
<path d="M57.7423 65.5645L57.6623 65.8045C57.6623 65.8045 57.5112 65.8223 57.3601 65.7334C57.3334 65.7245 57.1468 65.6089 56.8534 65.44C56.7201 65.3689 56.5779 65.28 56.409 65.1823C56.4001 65.1823 56.4001 65.1734 56.3912 65.1734C55.7868 64.8267 54.9601 64.3467 54.0979 63.8578C54.0712 63.84 54.0446 63.8223 54.009 63.8045C52.0268 62.6667 49.9023 61.4489 49.9023 61.4489L49.5379 61.2178L49.6268 61.1556L50.2935 60.7023L57.689 65.5112L57.7423 65.5645Z" fill="white"/>
<path d="M58.2758 67.2799C58.2758 67.2799 60.3558 64.2133 60.6669 62.4977C60.6669 62.4977 60.9514 62.0799 60.9958 62.6755C61.0403 63.271 60.7558 64.631 60.3469 65.431C59.9292 66.231 59.458 67.0133 59.458 67.0133L58.2758 67.2799Z" fill="white"/>
<path d="M58.4624 63.3689C58.4624 63.3689 59.2446 63.7689 59.3068 63.9733C59.369 64.1777 59.289 65.3511 58.6401 66.1333C57.9913 66.9155 57.7513 67.3155 56.8001 66.6666L56.6224 66.5511C56.6224 66.5511 56.2668 66.9689 56.249 67.28H59.209C59.209 67.28 59.4935 67.12 59.5468 66.6578C59.6001 66.2666 58.9601 66.3822 58.9601 66.3822L59.6802 65.0133C59.6802 65.0133 60.4179 62.6311 60.0802 61.9911C60.089 61.9911 59.7601 61.6888 58.4624 63.3689Z" fill="#4B4B5B"/>
<path d="M27.9999 66.8089C27.9021 66.8355 27.0844 66.8978 27.0844 66.8978C27.0844 66.8978 23.1377 62.9867 22.7199 61.6089C22.7199 61.6089 25.8132 59.3511 30.4444 59.7422L31.831 64.3467C31.831 64.3467 29.2621 66.0267 28.951 66.56L27.9999 66.8089Z" fill="white"/>
<path d="M26.2844 60.8444C26.4266 60.7822 27.7421 59.8489 29.1999 59.7422L31.0132 65.2089L30.4088 65.0755L26.2844 60.8444Z" fill="#9F9DB9"/>
<path d="M27.5198 66.8977C27.5198 66.8977 24.4887 62.6311 24.2487 61.7866C24.2487 61.7866 25.022 61.2711 25.7509 60.9244C26.5064 60.5688 26.862 60.4888 26.8798 60.4977C26.9509 60.5333 31.0042 65.2177 31.0042 65.2177C31.0042 65.2177 29.5553 65.8666 28.7553 66.8977H27.5198Z" fill="#24242F"/>
<path d="M33.6267 63.7245L32.1245 60.7734C32.1245 60.7734 31.8667 59.6534 29.9467 59.7067C29.9467 59.7067 28.7378 59.7423 28.6134 59.8578L31.0134 65.2178C31.0134 65.2178 32.2223 63.7423 33.6267 63.7245Z" fill="#24242F"/>
<path d="M34.1243 63.4755C34.1243 63.4755 33.2532 61.1111 31.911 60.3822C31.911 60.3822 33.0755 62.6311 33.3421 63.9466C33.3332 63.9466 33.6888 63.3511 34.1243 63.4755Z" fill="#F8DE0E"/>
<path d="M68.8533 66.7733C68.9511 66.8 69.7689 66.8622 69.7689 66.8622C69.7689 66.8622 73.7155 62.9511 74.1333 61.5733C74.1333 61.5733 71.04 59.3156 66.4089 59.7067L65.0222 64.3111C65.0222 64.3111 67.5911 65.9911 67.9022 66.5245L68.8533 66.7733Z" fill="white"/>
<path d="M70.5689 60.8089C70.4266 60.7467 69.1111 59.8134 67.6533 59.7067L65.8933 65.1645L66.4355 65.04L70.5689 60.8089Z" fill="#9F9DB9"/>
<path d="M69.3244 66.8533C69.3244 66.8533 72.3555 62.5867 72.5955 61.7422C72.5955 61.7422 71.8222 61.2267 71.0933 60.88C70.3378 60.5245 69.9822 60.4445 69.9644 60.4533C69.8933 60.4889 65.8933 65.1733 65.8933 65.1733C65.8933 65.1733 67.28 65.8222 68.08 66.8533H69.3244Z" fill="#24242F"/>
<path d="M63.2268 63.6889L64.729 60.7378C64.729 60.7378 64.9868 59.6178 66.9068 59.6711C66.9068 59.6711 68.1157 59.7067 68.2401 59.8222L65.8935 65.1734C65.8935 65.1734 64.6313 63.6978 63.2268 63.6889Z" fill="#24242F"/>
<path d="M62.7289 63.44C62.7289 63.44 63.6 61.0756 64.9422 60.3467C64.9422 60.3467 63.7778 62.5956 63.5111 63.9111C63.5111 63.9111 63.1555 63.3156 62.7289 63.44Z" fill="#F8DE0E"/>
<path d="M42.6754 37.92C42.6754 37.92 43.8221 38.1422 45.3421 39.52C46.8621 40.8978 47.4132 40.3822 47.5199 40.2755C47.6265 40.1689 48.3287 39.5822 47.5199 39.0222C46.711 38.4622 45.6887 37.6355 45.2887 37.3155C44.8887 36.9955 43.8932 36.7111 43.6887 36.7466L42.6754 37.92Z" fill="#EA1D22"/>
<path d="M45.2799 38.0178C45.2799 38.0178 46.0266 39.2178 46.1777 39.3778C46.3288 39.5378 46.6132 39.8489 46.871 39.8222C47.1288 39.7956 47.2088 39.6089 47.1643 39.4667C47.1199 39.3245 46.4266 38.96 46.1066 38.6933C45.7866 38.4267 45.2799 38.0178 45.2799 38.0178Z" fill="#FFFCD4"/>
<path d="M44.6577 59.4667C44.2843 59.4311 44.0977 59.84 44.0977 59.84H40.711C40.3466 59.76 39.9999 59.68 39.671 59.5556C38.871 59.2533 38.1155 58.72 37.1377 57.3956C37.1288 57.3867 37.1199 57.3689 37.111 57.36C35.751 55.5022 35.6177 53.4667 35.6177 53.4667L36.8177 54.2667L38.1599 55.1556L44.6577 59.4667Z" fill="#831622"/>
<path d="M37.0933 57.36C35.7333 55.5022 35.6 53.4667 35.6 53.4667L36.8 54.2667C36.8266 54.8356 36.9066 56.5067 37.0933 57.36Z" fill="#F8DE0E"/>
<path d="M44.6577 59.4667C44.2844 59.4311 44.0977 59.84 44.0977 59.84C44.0977 59.84 41.5555 59.9289 40.711 59.84C40.3377 59.7956 39.9999 59.68 39.671 59.5556C39.1377 59.3422 38.8977 58.6311 38.6221 57.9289C38.311 57.1378 38.1955 55.7333 38.1599 55.1555L44.6577 59.4667Z" fill="#EC1A21"/>
<path d="M40.1246 56.4622C40.1335 56.7911 40.2135 57.4222 40.6312 57.7956C41.2001 58.3111 41.5823 58.3556 41.8046 58.3822C41.9468 58.4 42.5246 58.3556 42.9335 58.32L40.1246 56.4622Z" fill="#FFF7F4"/>
<path d="M52.3111 59.36C52.6844 59.3245 52.72 59.84 52.72 59.84H56.1067C56.4711 59.76 56.8178 59.68 57.1467 59.5556C57.9467 59.2533 58.7022 58.72 59.68 57.3956C59.6889 57.3867 59.6978 57.3689 59.7066 57.36C61.0666 55.5022 61.2 53.4667 61.2 53.4667L60 54.2667L58.6578 55.1556L52.3111 59.36Z" fill="#831622"/>
<path d="M59.7067 57.36C61.0667 55.5022 61.2001 53.4667 61.2001 53.4667L60.0001 54.2667C59.9823 54.8356 59.9023 56.5067 59.7067 57.36Z" fill="#F8DE0E"/>
<path d="M52.3111 59.36C52.6844 59.3245 52.72 59.84 52.72 59.84C52.72 59.84 55.2622 59.9289 56.1067 59.84C56.48 59.7956 56.8178 59.68 57.1467 59.5556C57.68 59.3422 57.92 58.6311 58.1955 57.9289C58.5067 57.1378 58.6222 55.7333 58.6578 55.1555L52.3111 59.36Z" fill="#EC1A21"/>
<path d="M53.8756 58.32C54.2756 58.3556 54.8623 58.4 55.0045 58.3822C55.2267 58.3467 55.609 58.3022 56.1778 57.7956C56.5867 57.4222 56.6667 56.7911 56.6845 56.4622L53.8756 58.32Z" fill="#FFF7F4"/>
<path d="M41.9468 60.9778L39.6801 62.5067C39.6801 62.5067 39.6801 62.5067 39.6712 62.4978C39.5735 62.4355 38.7735 61.9111 38.809 60.4622C38.809 60.4622 39.0579 60.5867 39.5379 60.7111C40.0623 60.8533 40.8801 61.0044 41.9468 60.9778Z" fill="#831622"/>
<path d="M39.6712 62.5067C39.5735 62.4444 38.7735 61.92 38.809 60.4711C38.809 60.4711 39.0579 60.5955 39.5379 60.72C39.5201 61.1555 39.529 62.0622 39.6712 62.5067Z" fill="#F8DE0E"/>
<path d="M54.7111 60.9778L56.9778 62.5067C56.9778 62.5067 56.9778 62.5067 56.9867 62.4978C57.0844 62.4355 57.8844 61.9111 57.8489 60.4622C57.8489 60.4622 57.6 60.5867 57.12 60.7111C56.5956 60.8533 55.7778 60.9956 54.7111 60.9778Z" fill="#831622"/>
<path d="M56.9954 62.5067C57.0932 62.4444 57.8932 61.92 57.8576 60.4711C57.8576 60.4711 57.6088 60.5955 57.1288 60.72C57.1376 61.1467 57.1288 62.0622 56.9954 62.5067Z" fill="#F8DE0E"/>
<path d="M29.5288 53.1378L28.6221 54.4712L28.0355 55.3423C28.0355 55.3423 27.671 55.2978 27.1466 55.1823C27.111 55.1734 27.0755 55.1645 27.0399 55.1556C26.4799 55.0223 25.7688 54.8178 25.1377 54.4889C25.1288 54.4889 25.1288 54.4801 25.1199 54.4801C24.5599 54.1867 24.0621 53.7956 23.8044 53.2978C23.7688 53.2267 23.7421 53.1556 23.7155 53.0756V53.0667C23.191 51.3156 25.5199 47.769 25.5199 47.769C25.5199 47.769 25.8933 49.1556 26.871 50.4623C26.9066 50.5067 26.9421 50.5601 26.9866 50.6134C26.9866 50.6134 26.0266 51.4312 26.2666 52.0801C26.2666 52.0801 26.2666 52.0801 26.2666 52.0889C26.3021 52.1778 26.3644 52.2667 26.4533 52.3467C27.1821 53.0134 27.4133 52.9867 28.2577 52.0623L28.711 52.4534L28.7199 52.4623L29.5288 53.1378Z" fill="#F5F4F9"/>
<path d="M26.2846 52.0889C25.8402 52.6222 25.3691 53.8222 25.1291 54.48C24.5691 54.1867 24.0713 53.7955 23.8135 53.2978C23.7779 53.2267 23.7513 53.1555 23.7246 53.0755C24.1068 52.2933 25.7424 48.9067 25.7424 48.9067C25.7424 48.9067 26.0446 49.52 26.2046 49.7778C26.3557 50.0356 26.5779 50.2756 26.8268 50.48C26.8713 50.5156 26.9602 50.5689 27.0046 50.6133C26.9957 50.6133 26.0268 51.44 26.2846 52.0889Z" fill="#4B4B5B"/>
<path d="M28.7378 52.4623C28.5067 52.8889 27.6801 54.4267 27.1467 55.1823C26.5689 55.0489 25.8134 54.8356 25.1467 54.4889C25.3601 53.8489 25.8045 52.6223 26.2845 52.08C26.2845 52.08 26.2845 52.08 26.2845 52.0889C26.3201 52.1778 26.3823 52.2667 26.4712 52.3467C27.2001 53.0134 27.4312 52.9867 28.2756 52.0623L28.7378 52.4623Z" fill="#29282F"/>
<path d="M29.5289 53.1377L28.6223 54.4711L28.0356 55.3422C28.0356 55.3422 27.6711 55.2977 27.1467 55.1822C27.1111 55.1733 27.0756 55.1644 27.04 55.1555C27.4223 54.3466 28.3111 53.0399 28.7289 52.4533L28.7378 52.4622L29.5289 53.1377Z" fill="#A09DC0"/>
<path d="M28.6224 54.4711L28.0357 55.3422C28.0357 55.3422 24.6402 54.9422 23.8135 53.2978C23.7779 53.2266 23.7424 53.1467 23.7246 53.0667C25.6002 54.3289 27.9379 54.4622 28.6224 54.4711Z" fill="#F8DE0E"/>
<path d="M28.3289 50.0622L26.8 51.92L27.2889 52.3378L28.8356 50.48L28.3289 50.0622Z" fill="#A3A1BA"/>
<path d="M27.6267 50.9245L26.8 51.92L27.2889 52.3378L28.1334 51.3334L27.6267 50.9245Z" fill="#4B4B5B"/>
<path d="M32.0354 50.9245C32.0354 50.9245 30.4799 52.3023 30.2932 52.3378C30.1777 52.3645 29.6799 52.08 29.2977 51.8489C29.0399 51.6978 28.8355 51.5645 28.8355 51.5645V51.3867C29.6177 50.4711 29.5466 50.4178 28.8355 49.7067C28.4621 49.3334 28.0977 49.4845 27.831 49.7067C27.5999 49.9111 27.4488 50.1689 27.4488 50.1689C26.8443 49.5911 26.5777 48.7822 26.4621 48.0978C26.4621 48.0711 26.4532 48.0445 26.4532 48.0267C26.3466 47.3156 26.4088 46.7556 26.4088 46.7289C26.4266 46.7467 26.791 47.0134 27.3155 47.4045L27.3688 47.44C27.8666 47.8134 28.5066 48.2934 29.1466 48.7734C29.831 49.28 30.5243 49.7956 31.0577 50.1956C31.6355 50.6223 32.0354 50.9245 32.0354 50.9245Z" fill="#29282F"/>
<path d="M32.0354 50.9245C32.0354 50.9245 30.4798 52.3022 30.2932 52.3378C30.1776 52.3645 29.6798 52.08 29.2976 51.8489C29.6354 51.5022 30.5154 50.6222 31.0576 50.1956C31.6354 50.6222 32.0354 50.9245 32.0354 50.9245Z" fill="#A09DC0"/>
<path d="M29.1466 48.7645C28.8266 48.8978 28.3199 49.1733 27.831 49.6978C27.5999 49.9022 27.4488 50.16 27.4488 50.16C26.8444 49.5822 26.5777 48.7733 26.4621 48.0889C26.4621 48.0622 26.4532 48.0356 26.4532 48.0178C26.6932 47.8222 27.0132 47.5733 27.3155 47.3956L27.3688 47.4311C27.8666 47.8045 28.5066 48.2845 29.1466 48.7645Z" fill="#4B4B5B"/>
<path d="M67.369 53.0845L68.2757 54.4267L68.8623 55.2978C68.8623 55.2978 69.2268 55.2534 69.7512 55.1378C69.7868 55.1289 69.8223 55.12 69.8579 55.1111C70.4179 54.9778 71.129 54.7734 71.7601 54.4445C71.769 54.4445 71.769 54.4356 71.7779 54.4356C72.3379 54.1423 72.8357 53.7511 73.0935 53.2534C73.129 53.1823 73.1557 53.1111 73.1823 53.0311V53.0223C73.7068 51.2712 71.3779 47.7245 71.3779 47.7245C71.3779 47.7245 71.0046 49.1112 70.0268 50.4178C69.9912 50.4623 69.9557 50.5156 69.9112 50.5689C69.9112 50.5689 70.8712 51.3867 70.6312 52.0356C70.6312 52.0356 70.6312 52.0356 70.6312 52.0445C70.5957 52.1334 70.5335 52.2223 70.4446 52.3023C69.7157 52.9689 69.4846 52.9423 68.6401 52.0178L68.1868 52.4089L68.1779 52.4178L67.369 53.0845Z" fill="#F5F4F9"/>
<path d="M70.6134 52.0445C71.0578 52.5778 71.5289 53.7778 71.7689 54.4356C72.3289 54.1422 72.8267 53.7511 73.0845 53.2533C73.12 53.1822 73.1467 53.1111 73.1734 53.0311C72.7912 52.2489 71.1556 48.8622 71.1556 48.8622C71.1556 48.8622 70.8534 49.4756 70.6934 49.7334C70.5423 49.9911 70.32 50.2311 70.0711 50.4356C70.0267 50.4711 69.9378 50.5245 69.8934 50.5689C69.9023 50.5689 70.8712 51.3867 70.6134 52.0445Z" fill="#4B4B5B"/>
<path d="M68.1599 52.4178C68.391 52.8445 69.2177 54.3823 69.751 55.1378C70.3288 55.0045 71.0844 54.7911 71.751 54.4445C71.5377 53.8045 71.0932 52.5778 70.6132 52.0356C70.6132 52.0356 70.6132 52.0356 70.6132 52.0445C70.5777 52.1334 70.5155 52.2223 70.4266 52.3023C69.6977 52.9689 69.4666 52.9423 68.6221 52.0178L68.1599 52.4178Z" fill="#29282F"/>
<path d="M67.369 53.0844L68.2757 54.4266L68.8623 55.2977C68.8623 55.2977 69.2268 55.2533 69.7512 55.1377C69.7868 55.1288 69.8223 55.12 69.8579 55.1111C69.4757 54.3022 68.5868 52.9955 68.169 52.4088L68.1601 52.4177L67.369 53.0844Z" fill="#A09DC0"/>
<path d="M68.2755 54.4267L68.8621 55.2978C68.8621 55.2978 72.2577 54.8978 73.0843 53.2534C73.1199 53.1822 73.1555 53.1022 73.1732 53.0222C71.2888 54.2845 68.9599 54.4089 68.2755 54.4267Z" fill="#F8DE0E"/>
<path d="M68.5688 50.0089L70.0888 51.8666L69.5999 52.2844L68.0621 50.4266L68.5688 50.0089Z" fill="#A3A1BA"/>
<path d="M69.271 50.8711L70.0888 51.8666L69.5999 52.2844L68.7643 51.2889L69.271 50.8711Z" fill="#4B4B5B"/>
<path d="M64.8621 50.8711C64.8621 50.8711 66.4177 52.2489 66.6043 52.2844C66.7199 52.3111 67.2177 52.0266 67.5999 51.7955C67.8577 51.6444 68.0621 51.5111 68.0621 51.5111V51.3333C67.2799 50.4178 67.351 50.3644 68.0621 49.6533C68.4355 49.28 68.7999 49.4311 69.0666 49.6533C69.2977 49.8578 69.4488 50.1155 69.4488 50.1155C70.0532 49.5378 70.3199 48.7289 70.4355 48.0444C70.4355 48.0178 70.4444 47.9911 70.4444 47.9733C70.551 47.2622 70.4888 46.7022 70.4888 46.6755C70.471 46.6933 70.1066 46.96 69.5821 47.3511L69.5288 47.3866C69.031 47.76 68.391 48.24 67.751 48.72C67.0666 49.2266 66.3732 49.7422 65.8399 50.1422C65.2621 50.5778 64.8621 50.8711 64.8621 50.8711Z" fill="#29282F"/>
<path d="M64.8621 50.871C64.8621 50.871 66.4177 52.2488 66.6043 52.2844C66.7199 52.311 67.2177 52.0266 67.5999 51.7955C67.2621 51.4488 66.3821 50.5688 65.8399 50.1422C65.2621 50.5777 64.8621 50.871 64.8621 50.871Z" fill="#A09DC0"/>
<path d="M67.7512 48.72C68.0712 48.8534 68.5778 49.1289 69.0667 49.6533C69.2978 49.8578 69.4489 50.1156 69.4489 50.1156C70.0534 49.5378 70.3201 48.7289 70.4356 48.0445C70.4356 48.0178 70.4445 47.9911 70.4445 47.9734C70.2045 47.7778 69.8845 47.5289 69.5823 47.3511L69.5289 47.3867C69.0312 47.76 68.3912 48.2311 67.7512 48.72Z" fill="#4B4B5B"/>
<path d="M27.3688 47.4311C26.9777 47.6622 26.6666 47.9111 26.4621 48.0889C26.4621 48.0622 26.4532 48.0355 26.4532 48.0178C26.3466 47.3066 26.4088 46.7466 26.4088 46.72C26.4266 46.7377 26.791 47.0044 27.3154 47.3955L27.3688 47.4311Z" fill="#F5F4F9"/>
<path d="M30.8979 55.3422C30.969 55.4311 31.049 55.5111 31.1379 55.5822C31.9379 56.2578 33.2535 56.3911 33.2535 56.3911C33.4757 58.3467 31.609 58.8356 31.609 58.8356C30.7823 58.3911 29.2979 58.3822 29.2979 58.3822C28.9957 58.3822 28.7023 58.3911 28.4179 58.4178C27.7068 58.4711 27.0668 58.5689 26.5068 58.6933C24.9868 59.0311 24.0712 59.5289 24.0712 59.5289C24.1335 57.7778 24.8712 55.7778 24.8712 55.7778C25.7335 56.1956 26.4979 56.4178 27.1379 56.5245C28.249 56.72 28.9335 56.5778 28.9335 56.5778C30.1957 53.4933 33.0934 51.6889 33.0934 51.6889C34.1779 51.9645 34.3557 52.8178 34.3557 52.8178C33.4757 55.5378 30.8979 55.3422 30.8979 55.3422Z" fill="#791119"/>
<path d="M27.1288 56.5422C26.9688 56.9333 26.7021 57.68 26.4977 58.7111C24.9777 59.0489 24.0621 59.5467 24.0621 59.5467C24.071 59.3511 24.0799 59.1556 24.1066 58.96C24.2755 57.3778 24.8621 55.7956 24.8621 55.7956C25.1288 55.9289 25.3777 56.0356 25.6266 56.1333C26.1866 56.3289 26.6844 56.4622 27.1288 56.5422Z" fill="#EC1A21"/>
<path d="M25.6266 56.1244C25.2266 56.6933 24.5421 57.7777 24.1066 58.9511C24.2755 57.3688 24.8621 55.7866 24.8621 55.7866C25.1288 55.92 25.3866 56.0266 25.6266 56.1244Z" fill="#F5F4F9"/>
<path d="M31.6089 58.8355C30.7822 58.3911 29.2978 58.3822 29.2978 58.3822C28.9956 58.3822 28.7022 58.3911 28.4178 58.4177C28.9333 56.3911 30.4089 55.7689 31.1467 55.5822C31.9467 56.2577 33.2622 56.3911 33.2622 56.3911C33.4756 58.3466 31.6089 58.8355 31.6089 58.8355Z" fill="#EC1A21"/>
<path d="M33.2712 52.6578C33.2712 52.6578 31.8757 52.8267 31.6712 54.32C31.6624 54.32 33.1201 54.1689 33.2712 52.6578Z" fill="#EC1A21"/>
<path d="M65.911 55.3156C65.8399 55.4045 65.7599 55.4845 65.671 55.5556C64.871 56.2311 63.5555 56.3644 63.5555 56.3644C63.3332 58.32 65.1999 58.8089 65.1999 58.8089C66.0266 58.3644 67.511 58.3556 67.511 58.3556C67.8132 58.3556 68.1066 58.3645 68.391 58.3911C69.1021 58.4445 69.7421 58.5422 70.3021 58.6667C71.8221 59.0045 72.7377 59.5022 72.7377 59.5022C72.6755 57.7511 71.9377 55.7511 71.9377 55.7511C71.0755 56.1689 70.311 56.3911 69.671 56.4978C68.5599 56.6933 67.8755 56.5511 67.8755 56.5511C66.6132 53.4667 63.7155 51.6622 63.7155 51.6622C62.631 51.9378 62.4532 52.7911 62.4532 52.7911C63.3332 55.5022 65.911 55.3156 65.911 55.3156Z" fill="#791119"/>
<path d="M69.68 56.5066C69.84 56.8977 70.1067 57.6444 70.3111 58.6755C71.8311 59.0133 72.7466 59.5111 72.7466 59.5111C72.7378 59.3155 72.7289 59.12 72.7022 58.9244C72.5333 57.3422 71.9466 55.7599 71.9466 55.7599C71.68 55.8933 71.4311 55.9999 71.1822 56.0977C70.6222 56.3022 70.1155 56.4266 69.68 56.5066Z" fill="#EC1A21"/>
<path d="M71.1821 56.0889C71.5821 56.6578 72.2665 57.7422 72.7021 58.9156C72.5332 57.3333 71.9465 55.7511 71.9465 55.7511C71.6798 55.8845 71.4221 55.9911 71.1821 56.0889Z" fill="#F5F4F9"/>
<path d="M65.2001 58.8089C66.0268 58.3645 67.5112 58.3556 67.5112 58.3556C67.8134 58.3556 68.1068 58.3645 68.3912 58.3911C67.8756 56.3645 66.4001 55.7422 65.6623 55.5556C64.8623 56.2311 63.5468 56.3645 63.5468 56.3645C63.3334 58.32 65.2001 58.8089 65.2001 58.8089Z" fill="#EC1A21"/>
<path d="M63.538 52.631C63.538 52.631 64.9335 52.7999 65.138 54.2933C65.1468 54.2933 63.6802 54.1421 63.538 52.631Z" fill="#EC1A21"/>
<path d="M15.0222 69.8667C15.4133 69.4756 15.6088 69.2711 16.0088 68.88C17.0666 68.88 18.1333 68.88 19.191 68.88C19.5644 69.2533 19.7422 69.44 20.1155 69.8133C20.1155 70.6044 20.1155 70.9956 20.1155 71.7867C19.4933 71.7867 19.1733 71.7867 18.551 71.7867C18.551 71.2444 18.551 70.9778 18.551 70.4356C17.7688 70.4356 17.3777 70.4356 16.5866 70.4356C16.5866 72.56 16.5866 74.6844 16.5955 76.8089C17.3866 76.7822 17.7777 76.7644 18.5688 76.7289C18.5688 76.2044 18.5599 75.9467 18.5599 75.4222C19.191 75.4133 19.5022 75.4044 20.1244 75.3956C20.1333 76.1689 20.1333 76.5511 20.1422 77.3422C19.8133 77.68 19.6533 77.8489 19.3244 78.1956C18.2133 78.2578 17.111 78.3111 15.9999 78.3733C15.6088 78.0178 15.4133 77.84 15.0222 77.4844C15.0222 74.9511 15.0222 72.4089 15.0222 69.8667Z" fill="white"/>
<path d="M20.7644 68.88C22.4267 68.88 24.0889 68.88 25.7511 68.88C26.08 69.1911 26.24 69.3511 26.5689 69.6622C26.5689 71.0311 26.5689 72.4 26.5689 73.7689C26.2489 74.0889 26.08 74.24 25.76 74.5511C25.5556 74.5511 25.4489 74.5511 25.2444 74.5511C25.7156 75.3511 25.9467 75.7067 26.4089 76.4622C26.6756 76.4533 26.8089 76.4533 27.0667 76.4444C27.0756 76.9689 27.0756 77.2356 27.0844 77.8311C26.4533 77.8578 26.1333 77.8756 25.5022 77.9022C24.88 76.7822 24.2222 75.68 23.5911 74.56C23.3778 74.56 23.2622 74.56 23.0489 74.56C23.0578 75.3867 23.0578 75.76 23.0667 76.5689C23.3511 76.56 23.4933 76.5511 23.7778 76.5422C23.7867 77.0933 23.7867 77.3689 23.7956 77.9733C22.7911 78.0178 21.7956 78.0711 20.7911 78.1245C20.7822 77.52 20.7822 77.2267 20.7822 76.6489C21.0667 76.64 21.2178 76.6311 21.5022 76.6222C21.4844 74.56 21.4756 72.4978 21.4756 70.4356C21.1911 70.4356 21.04 70.4356 20.7556 70.4356C20.7644 69.8222 20.7644 69.5111 20.7644 68.88ZM25.0044 70.4444C24.2222 70.4444 23.8311 70.4444 23.04 70.4444C23.04 71.3156 23.04 72.1867 23.04 73.0578C23.8222 73.0578 24.2133 73.0578 25.0044 73.0578C25.0044 72.1867 25.0044 71.3156 25.0044 70.4444Z" fill="white"/>
<path d="M27.6887 70.4444C27.6887 69.8222 27.6887 69.5022 27.6887 68.88C28.7287 68.88 29.7776 68.88 30.8176 68.88C30.8176 69.5022 30.8176 69.8222 30.8176 70.4444C30.5065 70.4444 30.3554 70.4444 30.0532 70.4444C30.5065 71.3333 30.7287 71.7778 31.1732 72.6667C31.6087 71.7778 31.8221 71.3333 32.2576 70.4444C31.9909 70.4444 31.8576 70.4444 31.5821 70.4444C31.5821 69.8222 31.5821 69.5022 31.5821 68.88C32.5509 68.88 33.5287 68.88 34.4976 68.88C34.4976 69.5022 34.4976 69.8222 34.4976 70.4444C34.2665 70.4444 34.1509 70.4444 33.9198 70.4444C33.2798 71.7067 32.6665 72.9867 31.9821 74.2311C31.9909 75.1289 31.9909 75.4667 31.9998 76.2933C32.2843 76.2845 32.4265 76.2845 32.7109 76.2756C32.7198 76.7645 32.7198 77.0133 32.7198 77.6089C31.7243 77.6445 30.7287 77.68 29.7332 77.7245C29.7243 77.1289 29.7243 76.8711 29.7154 76.3645C29.9998 76.3556 30.1421 76.3556 30.4265 76.3467C30.4176 75.52 30.4087 75.1645 30.3998 74.2667C29.6532 73.04 29.0309 71.7244 28.3554 70.4533C28.1065 70.4444 27.9732 70.4444 27.6887 70.4444Z" fill="white"/>
<path d="M35.2 77.5289C35.2 76.9333 35.1911 76.6933 35.1911 76.2133C35.4756 76.2045 35.6178 76.2045 35.9111 76.1956C35.8933 74.2756 35.8933 72.3645 35.8933 70.4444C35.6089 70.4444 35.4578 70.4444 35.1733 70.4444C35.1733 69.8222 35.1733 69.5022 35.1733 68.88C36.8089 68.88 38.4356 68.88 40.0711 68.88C40.4356 69.2444 40.6133 69.4222 40.9778 69.7867C40.9778 71.0044 40.9778 72.2222 40.9778 73.44C40.5867 73.8222 40.4 74 40.0089 74.3111C39.1556 74.3111 38.3022 74.3111 37.4489 74.3111C37.4578 75.1378 37.4578 75.4222 37.4578 76.16C37.7422 76.1511 37.8844 76.1511 38.1689 76.1422C38.1689 76.6045 38.1689 76.8445 38.1778 77.4311C37.1822 77.4667 36.1867 77.4933 35.2 77.5289ZM39.4044 70.4444C38.6222 70.4444 38.2311 70.4444 37.44 70.4444C37.44 71.4044 37.44 71.8844 37.44 72.8533C38.2222 72.8533 38.6133 72.8533 39.4044 72.8533C39.4044 71.8933 39.4044 71.4044 39.4044 70.4444Z" fill="white"/>
<path d="M41.6266 72.2933C41.6266 71.1556 41.6266 70.0178 41.6266 68.88C43.7955 68.88 45.9733 68.88 48.1422 68.88C48.1422 70.0178 48.1422 71.1556 48.1422 72.2933C47.5378 72.2933 47.2355 72.2933 46.6311 72.2933C46.6311 71.5556 46.6311 71.1822 46.6311 70.4444C46.24 70.4444 46.0533 70.4444 45.6622 70.4444C45.6622 72.3111 45.6622 74.1778 45.6622 76.0445C45.9467 76.0445 46.0889 76.0445 46.3733 76.0356C46.3733 76.4711 46.3733 76.6933 46.3733 77.3067C45.3778 77.3156 44.3822 77.3245 43.3867 77.3333C43.3867 76.7289 43.3867 76.4978 43.3867 76.0622C43.6711 76.0622 43.8133 76.0533 44.0978 76.0533C44.0978 74.1778 44.0978 72.3111 44.0978 70.4356C43.7067 70.4356 43.52 70.4356 43.1289 70.4356C43.1289 71.1733 43.1289 71.5467 43.1289 72.2845C42.5333 72.2933 42.2311 72.2933 41.6266 72.2933Z" fill="white"/>
<path d="M48.791 76.4089C48.791 74.24 48.791 72.08 48.791 69.9111C49.1999 69.5022 49.4043 69.2889 49.8043 68.88C50.8977 68.88 51.9999 68.88 53.0932 68.88C53.4932 69.2889 53.6977 69.5022 54.0977 69.9111C54.0977 72.0978 54.0977 74.2756 54.1066 76.4622C53.6977 76.7733 53.4932 76.9422 53.0755 77.3333C51.9643 77.3245 50.8532 77.3156 49.751 77.3067C49.3688 76.8978 49.1821 76.7289 48.791 76.4089ZM52.5421 70.4444C51.671 70.4444 51.2355 70.4444 50.3643 70.4444C50.3643 72.3111 50.3643 74.1778 50.3643 76.0445C51.2355 76.0533 51.671 76.0533 52.551 76.0622C52.5421 74.1867 52.5421 72.32 52.5421 70.4444Z" fill="white"/>
<path d="M54.6044 76.08C54.8622 76.08 54.9955 76.0889 55.2533 76.0889C56.1778 73.7511 56.7378 71.2978 57.3955 68.88C57.9644 68.88 58.2489 68.88 58.8178 68.88C59.4755 71.3422 60.08 73.8045 60.9778 76.1956C61.2889 76.2045 61.4489 76.2045 61.7689 76.2133C61.7778 76.6845 61.7778 76.9333 61.7867 77.52C60.7555 77.4933 59.7244 77.4578 58.7022 77.44C58.7022 76.8445 58.6933 76.6133 58.6933 76.1511C59.0044 76.16 59.1555 76.16 59.4667 76.1689C59.3955 75.9733 59.36 75.8844 59.28 75.6978C58.3555 75.68 57.8844 75.68 56.96 75.6711C56.8978 75.8489 56.8622 75.9378 56.8 76.1245C57.1289 76.1333 57.2889 76.1333 57.6178 76.1422C57.6178 76.5956 57.6267 76.8267 57.6267 77.4222C56.6222 77.4045 55.6267 77.3867 54.6222 77.3689C54.6044 76.7556 54.6044 76.5245 54.6044 76.08ZM58.1155 71.8133C57.8667 72.7289 57.6355 73.6622 57.3333 74.56C57.9378 74.56 58.24 74.56 58.8533 74.56C58.5511 73.6622 58.3467 72.7289 58.1155 71.8133Z" fill="white"/>
<path d="M62.2311 77.5378C62.2222 76.9422 62.2222 76.7022 62.2134 76.2222C62.4978 76.2311 62.6489 76.2311 62.9334 76.24C62.9067 74.3111 62.8978 72.3733 62.8978 70.4444C62.6133 70.4444 62.4622 70.4444 62.1778 70.4444C62.1778 69.8222 62.1778 69.5022 62.1778 68.88C63.0311 68.88 63.4578 68.88 64.3022 68.88C65.0578 70.7022 65.7867 72.5422 66.6134 74.3378C66.5956 73.04 66.6045 71.7422 66.6045 70.4444C66.32 70.4444 66.1778 70.4444 65.8934 70.4444C65.8934 69.8222 65.8934 69.5022 65.8934 68.88C66.8889 68.88 67.8845 68.88 68.8889 68.88C68.8889 69.5022 68.8889 69.8222 68.8889 70.4444C68.6045 70.4444 68.4622 70.4444 68.1778 70.4444C68.1778 72.88 68.2045 75.3156 68.2489 77.76C67.6711 77.7333 67.3867 77.7244 66.8089 77.7067C66.0534 76.16 65.1734 74.6756 64.4622 73.1022C64.4622 74.1689 64.4889 75.2267 64.5067 76.2844C64.7911 76.2933 64.9334 76.2933 65.2267 76.3022C65.2356 76.8 65.2356 77.0489 65.2445 77.6444C64.24 77.6 63.2356 77.5733 62.2311 77.5378Z" fill="white"/>
<path d="M69.5466 72.2933C69.5466 71.1556 69.5466 70.0178 69.5466 68.88C71.7155 68.88 73.8933 68.88 76.0622 68.88C76.0622 70.0178 76.0622 71.1556 76.0622 72.2933C75.4577 72.2933 75.1555 72.2933 74.5511 72.2933C74.5511 71.5556 74.5511 71.1822 74.5511 70.4444C74.16 70.4444 73.9733 70.4444 73.5822 70.4444C73.5822 72.4889 73.5911 74.5244 73.6266 76.56C73.9111 76.5689 74.0533 76.5778 74.3377 76.5867C74.3466 77.1467 74.3466 77.4311 74.3555 78.0356C73.36 77.9911 72.3644 77.9378 71.3689 77.8933C71.36 77.2978 71.3511 77.0222 71.3422 76.4889C71.6266 76.4978 71.7688 76.5067 72.0533 76.5156C72.0177 74.4978 72 72.4711 72 70.4533C71.6089 70.4533 71.4222 70.4533 71.0311 70.4533C71.0311 71.1911 71.0311 71.5644 71.0311 72.3022C70.4533 72.2933 70.1511 72.2933 69.5466 72.2933Z" fill="white"/>
<path d="M76.7199 69.7156C77.0577 69.3867 77.2266 69.2178 77.5644 68.88C78.7288 68.88 79.8933 68.88 81.0488 68.88C81.4044 69.2267 81.5733 69.3956 81.9288 69.7422C81.9288 70.4711 81.9288 70.8356 81.9288 71.5644C81.3066 71.5644 80.9866 71.5644 80.3644 71.5644C80.3644 71.12 80.3644 70.8978 80.3644 70.4444C79.5288 70.4444 79.1111 70.4444 78.2755 70.4444C78.2755 71.36 78.2755 71.8133 78.2755 72.72C79.1999 72.72 80.1155 72.72 81.04 72.72C81.3955 73.0756 81.5733 73.2622 81.9288 73.6178C81.9288 74.8356 81.9288 76.0444 81.9288 77.2622C81.4755 77.7156 81.2533 77.9289 80.8 78.3733C79.7955 78.32 78.8 78.2667 77.7955 78.2133C77.3777 77.7867 77.1733 77.5822 76.7555 77.1822C76.7466 76.5422 76.7466 76.24 76.7377 75.6089C77.3599 75.6178 77.6711 75.6267 78.2933 75.6444C78.2933 76.08 78.3022 76.3022 78.3022 76.7378C79.1288 76.7733 79.5466 76.7822 80.3733 76.8178C80.3733 75.9644 80.3644 75.1111 80.3644 74.2667C79.4488 74.2667 78.5244 74.2578 77.6088 74.2578C77.2444 73.9111 77.0666 73.7422 76.7111 73.3867C76.7199 72.16 76.7199 70.9333 76.7199 69.7156Z" fill="white"/>
<path d="M19.84 69.9293C19.84 70.5693 19.84 70.8893 19.84 71.5293C19.4311 71.5293 19.2177 71.5293 18.8089 71.5293C18.8089 70.987 18.8089 70.7204 18.8089 70.1781C17.9733 70.1781 17.1466 70.1781 16.3111 70.1781C16.3111 71.5737 16.3111 72.9692 16.3111 74.3648C15.9022 74.3648 15.6889 74.3648 15.28 74.3737C15.28 72.907 15.28 71.4493 15.28 69.9826C15.6089 69.6537 15.7777 69.4848 16.1066 69.147C17.0933 69.147 18.08 69.147 19.0666 69.147C19.3777 69.4581 19.5289 69.6181 19.84 69.9293Z" fill="url(#paint1_linear)"/>
<path d="M25.6443 69.1467C24.1066 69.1467 22.5688 69.1467 21.031 69.1467C21.031 69.5556 21.031 69.7689 21.031 70.1778C21.3155 70.1778 21.4666 70.1778 21.751 70.1778C21.751 71.5644 21.7421 72.9511 21.7599 74.3378C22.1688 74.3378 22.3732 74.3378 22.7821 74.3289C22.7821 74.32 22.7821 74.32 22.7821 74.3111C23.1732 74.3111 23.3688 74.3111 23.7599 74.3111C23.7599 74.32 23.7688 74.32 23.7688 74.3289C24.1866 74.3289 24.3999 74.3289 24.8177 74.3289C24.8177 74.32 24.8088 74.32 24.8088 74.3111C25.1466 74.3111 25.3066 74.3111 25.6443 74.3111C25.911 74.0622 26.0355 73.9378 26.3021 73.6711C26.3021 72.3733 26.3021 71.0756 26.3021 69.7778C26.0355 69.52 25.9021 69.3956 25.6443 69.1467ZM25.271 73.3245C24.4355 73.3245 23.6088 73.3245 22.7732 73.3245C22.7732 72.2756 22.7732 71.2267 22.7732 70.1778C23.6088 70.1778 24.4355 70.1778 25.271 70.1778C25.271 71.2267 25.271 72.2756 25.271 73.3245Z" fill="url(#paint2_linear)"/>
<path d="M34.2398 69.1467C34.2398 69.5556 34.2398 69.7689 34.2398 70.1778C34.0532 70.1778 33.9554 70.1778 33.7598 70.1778C33.0843 71.5111 32.4265 72.8622 31.7243 74.1778C31.7243 74.2311 31.7243 74.2578 31.7243 74.3022C31.3154 74.3022 31.1109 74.3022 30.6932 74.3022C30.6932 74.2578 30.6932 74.24 30.6932 74.1956C29.9198 72.8889 29.2532 71.52 28.5421 70.1778C28.3109 70.1778 28.1865 70.1778 27.9554 70.1778C27.9554 69.7689 27.9554 69.5556 27.9554 69.1467C28.8176 69.1467 29.6887 69.1467 30.5509 69.1467C30.5509 69.5556 30.5509 69.7689 30.5509 70.1778C30.1776 70.1778 29.9909 70.1778 29.6176 70.1778C30.1421 71.2089 30.6576 72.2311 31.182 73.2622C31.6887 72.2311 32.1865 71.2089 32.6932 70.1778C32.3643 70.1778 32.1954 70.1778 31.8576 70.1778C31.8576 69.7689 31.8576 69.5556 31.8576 69.1467C32.8087 69.1467 33.2798 69.1467 34.2398 69.1467Z" fill="url(#paint3_linear)"/>
<path d="M39.9556 69.1467C38.4445 69.1467 36.9423 69.1467 35.4312 69.1467C35.4312 69.5556 35.4312 69.7689 35.4312 70.1778C35.7156 70.1778 35.8667 70.1778 36.1512 70.1778C36.1512 71.5467 36.1512 72.9244 36.1512 74.2933C36.56 74.2933 36.7645 74.2933 37.1734 74.2933C37.1734 74.2133 37.1734 74.1689 37.1734 74.08C38.08 74.08 38.9867 74.08 39.8845 74.08C40.2045 73.8044 40.3645 73.6444 40.6934 73.3244C40.6934 72.1778 40.6934 71.04 40.6934 69.8933C40.4 69.6 40.2489 69.4489 39.9556 69.1467ZM39.6711 73.12C38.8356 73.12 38.0089 73.12 37.1734 73.12C37.1734 72.1422 37.1734 71.1556 37.1734 70.1778C38.0089 70.1778 38.8356 70.1778 39.6711 70.1778C39.6711 71.1556 39.6711 72.1422 39.6711 73.12Z" fill="url(#paint4_linear)"/>
<path d="M47.8756 69.1467C47.8756 70.1067 47.8756 71.0667 47.8756 72.0267C47.4845 72.0267 47.289 72.0267 46.8979 72.0267C46.8979 71.2889 46.8979 70.9156 46.8979 70.1778C46.2934 70.1778 46.0001 70.1778 45.3956 70.1778C45.3956 71.5556 45.3956 72.9244 45.3956 74.3022C44.9867 74.3022 44.7734 74.3022 44.3645 74.3022C44.3645 72.9333 44.3645 71.5556 44.3645 70.1867C43.7601 70.1867 43.4667 70.1867 42.8623 70.1867C42.8623 70.9244 42.8623 71.2978 42.8623 72.0356C42.4712 72.0356 42.2756 72.0356 41.8845 72.0356C41.8845 71.0756 41.8845 70.1156 41.8845 69.1556C43.8845 69.1467 45.8756 69.1467 47.8756 69.1467Z" fill="url(#paint5_linear)"/>
<path d="M52.9866 69.1467C51.9643 69.1467 50.9421 69.1467 49.9199 69.1467C49.5732 69.4933 49.4043 69.6711 49.0577 70.0178C49.0577 71.4489 49.0577 72.8711 49.0577 74.3022C49.4666 74.3022 49.6799 74.3022 50.0888 74.3022C50.0888 72.9244 50.0888 71.5556 50.0888 70.1778C50.9955 70.1778 51.9021 70.1778 52.7999 70.1778C52.7999 71.5467 52.7999 72.9244 52.7999 74.2933C53.2088 74.2933 53.4221 74.2933 53.831 74.2933C53.831 72.8711 53.831 71.44 53.831 70.0178C53.4932 69.6711 53.3243 69.4933 52.9866 69.1467Z" fill="url(#paint6_linear)"/>
<path d="M58.6044 69.1467C58.2044 69.1467 58 69.1467 57.5911 69.1467C57.1289 70.8622 56.7022 72.5956 56.1866 74.2933C56.5689 74.2933 56.7555 74.2933 57.1378 74.2933C57.4933 73.12 57.7955 71.9378 58.1155 70.7556C58.4178 71.9378 58.6933 73.1289 59.0311 74.2933C59.4133 74.2933 59.6089 74.2933 59.9911 74.2933C59.4755 72.6044 59.0667 70.8622 58.6044 69.1467Z" fill="url(#paint7_linear)"/>
<path d="M64.1334 69.1467C64.8534 70.8711 65.5112 72.6311 66.3201 74.3111C65.9112 74.3111 65.7157 74.3111 65.3068 74.3111C65.0668 73.8311 64.9423 73.5467 64.7112 72.9956C64.5068 73.04 64.4001 73.0578 64.1957 73.1022C64.1957 73.6178 64.1957 73.8756 64.2045 74.3111C63.7957 74.3111 63.5912 74.3111 63.1823 74.3111C63.1734 72.9333 63.1734 71.5644 63.1734 70.1867C62.889 70.1867 62.7379 70.1867 62.4534 70.1867C62.4534 69.7778 62.4534 69.5644 62.4534 69.1556C63.1201 69.1467 63.4579 69.1467 64.1334 69.1467Z" fill="url(#paint8_linear)"/>
<path d="M68.6223 69.1467C68.6223 69.5556 68.6223 69.7689 68.6223 70.1778C68.3379 70.1778 68.1957 70.1778 67.9112 70.1778C67.9112 71.5556 67.9112 72.9333 67.9201 74.3111C67.5112 74.3111 67.2979 74.3111 66.889 74.3111C66.8801 72.9333 66.8801 71.5556 66.8801 70.1778C66.5957 70.1778 66.4535 70.1778 66.169 70.1778C66.169 69.7689 66.169 69.5556 66.169 69.1467C67.1468 69.1467 67.6357 69.1467 68.6223 69.1467Z" fill="url(#paint9_linear)"/>
<path d="M75.7956 69.1467C75.7956 70.1067 75.7956 71.0667 75.7956 72.0267C75.4044 72.0267 75.2089 72.0267 74.8178 72.0267C74.8178 71.2889 74.8178 70.9156 74.8178 70.1778C74.2133 70.1778 73.92 70.1778 73.3156 70.1778C73.3156 71.5644 73.3067 72.9511 73.3244 74.3289C72.9156 74.3289 72.7022 74.3289 72.2933 74.3289C72.2667 72.9422 72.2844 71.5644 72.2844 70.1778C71.68 70.1778 71.3867 70.1778 70.7822 70.1778C70.7822 70.9156 70.7822 71.2889 70.7822 72.0267C70.3911 72.0267 70.1956 72.0267 69.8044 72.0267C69.8044 71.0667 69.8044 70.1067 69.8044 69.1467C71.8044 69.1467 73.7956 69.1467 75.7956 69.1467Z" fill="url(#paint10_linear)"/>
<path d="M80.64 71.2978C80.64 70.8534 80.64 70.6312 80.64 70.1778C79.7689 70.1778 78.8889 70.1778 78.0178 70.1778C78.0178 71.1112 78.0178 72.0534 78.0178 72.9867C78.9867 72.9867 79.9645 72.9867 80.9334 72.9867C81.2267 73.28 81.3778 73.4312 81.6711 73.7245C81.6711 73.9823 81.6711 74.1067 81.6711 74.3645C81.2623 74.3645 81.0578 74.3645 80.64 74.3556C80.64 74.2134 80.64 74.1334 80.64 73.9912C79.6711 73.9912 78.6934 73.9912 77.7245 73.9823C77.4311 73.6978 77.28 73.5467 76.9867 73.2534C76.9867 72.1067 76.9867 70.96 76.9867 69.8134C77.2623 69.5378 77.4045 69.4045 77.68 69.1378C78.7734 69.1378 79.8578 69.1378 80.9511 69.1378C81.2445 69.4223 81.3867 69.5645 81.6711 69.84C81.6711 70.4178 81.6711 70.7023 81.6711 71.28C81.2534 71.2978 81.0489 71.2978 80.64 71.2978Z" fill="url(#paint11_linear)"/>
<path d="M19.8575 75.6625C19.8664 76.3025 19.8664 76.6136 19.8664 77.2625C19.5998 77.538 19.4664 77.6713 19.2087 77.9558C18.1775 78.0091 17.1464 78.0625 16.1153 78.1158C15.7864 77.8225 15.6175 77.6713 15.2975 77.3691C15.2975 75.8136 15.2975 74.258 15.2975 72.7025C15.7064 72.7025 15.9198 72.7025 16.3287 72.7025C16.3287 74.1691 16.3375 75.6269 16.3375 77.0936C17.1731 77.058 18.0087 77.0224 18.8442 76.9869C18.8442 76.4624 18.8353 76.2047 18.8353 75.6891C19.2353 75.6713 19.4398 75.6713 19.8575 75.6625Z" fill="url(#paint12_linear)"/>
<path d="M26.2487 76.6934C25.7598 75.9023 25.2621 75.12 24.8087 74.3112C25.1465 74.3112 25.3065 74.3112 25.6443 74.3112C25.911 74.0623 26.0354 73.9378 26.3021 73.6712C26.3021 73.2978 26.3021 73.0934 26.3021 72.7023C25.8932 72.7023 25.6798 72.7023 25.2709 72.7023C25.2709 72.9512 25.2709 73.0756 25.2709 73.3245C24.4354 73.3245 23.6087 73.3245 22.7732 73.3245C22.7732 73.0756 22.7732 72.9512 22.7732 72.7023C22.3643 72.7023 22.1598 72.7023 21.751 72.7023C21.7421 74.0889 21.7687 75.4756 21.7776 76.8623C21.4932 76.8712 21.3421 76.88 21.0576 76.8889C21.0576 77.2712 21.0665 77.4578 21.0665 77.8578C22.0532 77.8045 22.551 77.7867 23.5287 77.7423C23.5287 77.3511 23.5198 77.1645 23.5198 76.8C23.2354 76.8089 23.0932 76.8178 22.7998 76.8267C22.791 75.9912 22.7821 75.1556 22.7732 74.32C23.1643 74.32 23.3598 74.32 23.751 74.32C24.3732 75.4312 25.031 76.5334 25.6621 77.6445C26.1243 77.6267 26.3554 77.6178 26.8176 77.5912C26.8176 77.2089 26.8087 77.0311 26.8087 76.6756C26.5865 76.6845 26.4709 76.6845 26.2487 76.6934Z" fill="url(#paint13_linear)"/>
<path d="M31.7509 76.5156C32.0354 76.5067 32.1776 76.5067 32.462 76.4978C32.462 76.8267 32.4709 76.9956 32.4709 77.3689C31.4931 77.4045 30.9954 77.4223 30.0176 77.4578C30.0176 77.0845 30.0087 76.9067 30.0087 76.5689C30.2931 76.56 30.4354 76.5512 30.7198 76.5423C30.7109 75.5912 30.702 75.2178 30.6931 74.1956C30.3643 73.6534 30.2043 73.3156 29.8754 72.7023C30.2843 72.7023 30.4887 72.7023 30.8976 72.7023C31.0131 72.9245 31.0665 73.04 31.182 73.2623C31.2887 73.04 31.342 72.9245 31.4576 72.7023C31.8754 72.7023 32.0798 72.7023 32.4976 72.7023C32.1865 73.3156 32.0354 73.6445 31.7331 74.1778C31.7331 75.2 31.742 75.5645 31.7509 76.5156Z" fill="url(#paint14_linear)"/>
<path d="M39.6708 72.7023C39.6708 72.8712 39.6708 72.9512 39.6708 73.12C38.8353 73.12 38.0086 73.12 37.1731 73.12C37.1731 72.9512 37.1731 72.8712 37.1731 72.7023C36.7642 72.7023 36.5597 72.7023 36.1508 72.7023C36.1508 73.9289 36.1597 75.1645 36.1686 76.3912C35.8842 76.4 35.7419 76.4 35.4486 76.4089C35.4486 76.7289 35.4486 76.8978 35.4575 77.2623C36.4353 77.2356 36.9331 77.2178 37.9108 77.1912C37.9108 76.8178 37.9108 76.6578 37.9019 76.3467C37.6175 76.3556 37.4753 76.3556 37.1908 76.3645C37.1819 75.44 37.1819 75.1289 37.1731 74.08C38.0797 74.08 38.9864 74.08 39.8842 74.08C40.2042 73.8045 40.3642 73.6445 40.6931 73.3245C40.6931 73.0756 40.6931 72.9512 40.6931 72.7023C40.2842 72.7023 40.0797 72.7023 39.6708 72.7023Z" fill="url(#paint15_linear)"/>
<path d="M46.1153 76.2311C46.1153 76.5245 46.1153 76.6845 46.1153 77.0578C45.1287 77.0667 44.6398 77.0667 43.662 77.0845C43.662 76.7111 43.662 76.5511 43.662 76.2489C43.9464 76.2489 44.0887 76.24 44.3731 76.24C44.3731 75.0578 44.3731 73.8756 44.3731 72.6934C44.782 72.6934 44.9953 72.6934 45.4042 72.6934C45.4042 73.8756 45.4042 75.0489 45.4042 76.2311C45.6798 76.24 45.822 76.24 46.1153 76.2311Z" fill="url(#paint16_linear)"/>
<path d="M52.8087 72.7022C52.8087 73.8844 52.8087 75.0667 52.8176 76.2489C51.9109 76.24 51.0043 76.2311 50.0976 76.2222C50.0976 75.0489 50.0976 73.8756 50.0976 72.6933C49.6887 72.6933 49.4754 72.6933 49.0665 72.6933C49.0665 73.9022 49.0665 75.1111 49.0665 76.32C49.3954 76.5778 49.5554 76.72 49.8754 77.04C50.9065 77.0489 51.9376 77.0578 52.9776 77.0667C53.3243 76.7556 53.502 76.6133 53.8487 76.3556C53.8487 75.1289 53.8398 73.9111 53.8398 72.6844C53.422 72.7022 53.2176 72.7022 52.8087 72.7022Z" fill="url(#paint17_linear)"/>
<path d="M60.7731 76.3912C60.3198 75.1645 59.902 73.9645 59.5553 72.7023C59.182 72.7023 58.9953 72.7023 58.622 72.7023C58.8531 73.6089 58.9687 74.0712 59.1998 74.7645C58.3198 74.7645 57.8753 74.7556 56.9864 74.7556C57.2264 74.08 57.3509 73.6089 57.5909 72.7023C57.2087 72.7023 57.0131 72.7023 56.6309 72.7023C56.302 73.9289 55.902 75.1023 55.4487 76.2845C55.2087 76.2845 55.0931 76.2756 54.862 76.2756C54.862 76.5778 54.862 76.7378 54.862 77.1023C55.8487 77.12 56.3464 77.1289 57.3331 77.1467C57.3331 76.7823 57.3331 76.6223 57.3242 76.3112C56.9687 76.3023 56.782 76.3023 56.4264 76.2934C56.5509 75.9467 56.6042 75.7867 56.7287 75.4667C57.6353 75.4756 58.5509 75.4845 59.4576 75.4934C59.5909 75.8312 59.662 75.9912 59.7953 76.3556C59.4487 76.3467 59.2798 76.3467 58.9331 76.3378C58.9331 76.6489 58.9331 76.8089 58.942 77.1823C59.7953 77.2 60.6398 77.2267 61.4931 77.2534C61.4931 76.88 61.4842 76.72 61.4842 76.4C61.1998 76.4 61.0576 76.4 60.7731 76.3912Z" fill="url(#paint18_linear)"/>
<path d="M67.9109 72.7023C67.9198 74.3022 67.9464 75.8934 67.9731 77.4934C67.5731 77.4756 67.3776 77.4667 66.9776 77.4578C66.222 75.9645 65.3865 74.5245 64.702 72.9867C64.4976 73.0311 64.3909 73.0489 64.1865 73.0934C64.1953 74.2222 64.2131 75.3511 64.2309 76.48C64.5153 76.4889 64.6576 76.4889 64.9509 76.4978C64.9598 76.8267 64.9598 77.0045 64.9598 77.3778C63.9731 77.3422 63.4753 77.3245 62.4887 77.2978C62.4887 76.9245 62.4798 76.7556 62.4798 76.4356C62.7731 76.4445 62.9153 76.4445 63.1998 76.4534C63.182 75.2 63.1642 73.9556 63.1642 72.7023C64.142 72.7023 64.6309 72.7023 65.6087 72.7023C65.9109 73.4223 66.062 73.8045 66.3731 74.4178C66.5776 74.3822 66.6842 74.3645 66.8887 74.3289C66.8798 73.7334 66.8798 73.3778 66.8798 72.6934C67.2887 72.7022 67.4931 72.7023 67.9109 72.7023Z" fill="url(#paint19_linear)"/>
<path d="M74.0797 76.8178C74.0886 77.1912 74.0886 77.3778 74.0975 77.7689C73.1197 77.7245 72.6219 77.6978 71.6441 77.6534C71.6352 77.2712 71.6352 77.0845 71.6263 76.7289C71.9108 76.7378 72.053 76.7467 72.3375 76.7556C72.3108 75.4045 72.2841 74.0534 72.2841 72.7023C72.693 72.7023 72.9063 72.7023 73.3152 72.7023C73.3152 74.0623 73.3419 75.4312 73.3686 76.7912C73.653 76.8 73.7952 76.8089 74.0797 76.8178Z" fill="url(#paint20_linear)"/>
<path d="M81.6619 73.7334C81.6619 74.8712 81.6619 76.0089 81.6619 77.1467C81.2708 77.5378 81.0753 77.7245 80.6841 78.1067C79.7597 78.0534 78.8264 78.0089 77.9019 77.9556C77.5464 77.6001 77.3686 77.4223 77.0219 77.0845C77.013 76.5867 77.013 76.3467 77.0041 75.8578C77.413 75.8667 77.6175 75.8756 78.0264 75.8845C78.0264 76.3201 78.0353 76.5334 78.0353 76.9778C78.9064 77.0134 79.7686 77.0489 80.6397 77.0934C80.6397 76.0623 80.6308 75.0312 80.6308 74C79.6619 74 78.6841 74 77.7153 73.9912C77.4219 73.7067 77.2708 73.5556 76.9775 73.2623C76.9775 73.04 76.9775 72.9245 76.9775 72.7023C77.3864 72.7023 77.5997 72.7023 78.0086 72.7023C78.0086 72.8178 78.0086 72.8712 78.0086 72.9867C78.9775 72.9867 79.9553 72.9867 80.9241 72.9867C81.2264 73.2889 81.3686 73.4312 81.6619 73.7334Z" fill="url(#paint21_linear)"/>
<path d="M66.8889 74.3111C66.8889 74.32 66.8889 74.3289 66.8889 74.3378C66.6844 74.3733 66.5777 74.3911 66.3733 74.4267C66.3466 74.3822 66.3377 74.3555 66.3199 74.3111C66.5511 74.3111 66.6577 74.3111 66.8889 74.3111Z" fill="white"/>
<path d="M36.4446 67.3511H34.4979C34.4979 67.3511 33.8935 65.5022 33.8935 65.2355C33.8935 64.9689 34.1957 64.2222 34.7824 64.0978C34.7824 64.0978 34.8002 64.0711 34.8357 64.0978C34.8802 64.1244 34.9424 64.2133 35.0402 64.48C35.2268 64.96 36.4446 67.3511 36.4446 67.3511Z" fill="#EB1927"/>
<path d="M34.5246 67.3511H34.4979C34.4979 67.3511 33.8935 65.5022 33.8935 65.2355C33.8935 64.9689 34.1957 64.2222 34.7824 64.0978C34.7824 64.0978 34.8002 64.0711 34.8357 64.0978C34.6668 64.4622 34.4802 64.9955 34.4179 65.3955C34.3468 65.84 34.4802 66.96 34.5246 67.3511Z" fill="white"/>
<path d="M33.8666 67.3422H32.2044C32.2044 67.3422 32.2044 67.3333 32.1955 67.3066C32.1244 67.0933 31.7511 65.8933 31.8133 65.6533C31.8577 65.4755 32.1066 65.1555 32.3555 64.9422C32.48 64.8355 32.6044 64.7555 32.7022 64.7377C32.9777 64.6933 33.0311 64.8889 33.0311 64.8889C33.0311 64.8889 33.76 67.2444 33.8666 67.3422Z" fill="#EB1927"/>
<path d="M32.1955 67.3067C32.1244 67.0933 31.7511 65.8933 31.8133 65.6533C31.8577 65.4756 32.1066 65.1556 32.3555 64.9422C32.2666 65.4222 32.08 66.5956 32.1955 67.3067Z" fill="white"/>
<path d="M31.6355 67.3422H30.5066C30.5066 67.3422 30.5066 67.3333 30.4978 67.3333C30.4533 67.2711 30.24 67.0133 30.2666 66.7911C30.2844 66.6667 30.4444 66.48 30.6222 66.3111C30.7911 66.1511 30.9778 66.0267 31.0666 66.0178C31.2355 66 31.3155 66.1333 31.3244 66.1511C31.3422 66.1778 31.6355 67.3422 31.6355 67.3422Z" fill="#EB1927"/>
<path d="M30.6222 66.3111C30.5777 66.5689 30.5155 67.0489 30.4977 67.3333C30.4533 67.2711 30.24 67.0133 30.2666 66.7911C30.2844 66.6667 30.4444 66.4711 30.6222 66.3111Z" fill="white"/>
<path d="M60.4088 67.3333H62.3554C62.3554 67.3333 62.9599 65.4844 62.9599 65.2178C62.9599 64.9511 62.6576 64.2044 62.071 64.08C62.071 64.08 62.0532 64.0533 62.0176 64.08C61.9732 64.1067 61.911 64.1956 61.8132 64.4622C61.6265 64.9511 60.4088 67.3333 60.4088 67.3333Z" fill="#EB1927"/>
<path d="M62.3199 67.3333H62.3466C62.3466 67.3333 62.951 65.4844 62.951 65.2178C62.951 64.9511 62.6488 64.2044 62.0621 64.08C62.0621 64.08 62.0443 64.0533 62.0088 64.08C62.1777 64.4444 62.3643 64.9778 62.4266 65.3778C62.4977 65.8311 62.3732 66.9511 62.3199 67.3333Z" fill="white"/>
<path d="M63.0042 67.3334H64.6664C64.6664 67.3334 64.6664 67.3245 64.6753 67.2978C64.7464 67.0845 65.1197 65.8845 65.0575 65.6445C65.013 65.4667 64.7641 65.1467 64.5153 64.9333C64.3908 64.8267 64.2664 64.7467 64.1686 64.7289C63.893 64.6844 63.8397 64.88 63.8397 64.88C63.8397 64.88 63.1197 67.2267 63.0042 67.3334Z" fill="#EB1927"/>
<path d="M64.6754 67.2977C64.7465 67.0844 65.1198 65.8844 65.0576 65.6444C65.0132 65.4666 64.7643 65.1467 64.5154 64.9333C64.6043 65.4044 64.7998 66.5777 64.6754 67.2977Z" fill="white"/>
<path d="M65.2442 67.3333H66.3731C66.3731 67.3333 66.3731 67.3244 66.382 67.3244C66.4264 67.2622 66.6397 67.0044 66.6131 66.7822C66.5953 66.6578 66.4353 66.4711 66.2575 66.3022C66.0886 66.1422 65.902 66.0178 65.8131 66.0089C65.6442 65.9911 65.5642 66.1244 65.5553 66.1422C65.5375 66.1689 65.2442 67.3333 65.2442 67.3333Z" fill="#EB1927"/>
<path d="M66.2575 66.2934C66.302 66.5512 66.3642 67.0312 66.382 67.3156C66.4264 67.2534 66.6397 66.9956 66.6131 66.7734C66.5953 66.649 66.4353 66.4623 66.2575 66.2934Z" fill="white"/>
<path d="M47.9289 62.96C47.9111 63.7066 47.7156 64.3289 47.3156 64.6933C46.7378 65.2177 44.0356 64.4533 44.0356 64.4533C44.0356 64.4533 44.5156 64.1333 45.1378 63.7244C46.2667 62.9778 47.8578 61.92 47.8578 61.9467C47.9111 62.2933 47.9378 62.64 47.9289 62.96Z" fill="#ED232C"/>
<path d="M47.9289 62.96C47.9112 63.7066 47.7156 64.3288 47.3156 64.6933C46.7378 65.2177 44.0356 64.4533 44.0356 64.4533C44.0356 64.4533 44.5156 64.1333 45.1378 63.7244C45.4134 63.8222 46.0089 63.9555 46.4889 63.8933C46.9956 63.8133 47.6711 63.2088 47.9289 62.96Z" fill="#7E141A"/>
<path d="M48.9153 62.96C48.9331 63.7066 49.1287 64.3289 49.5287 64.6933C50.1064 65.2177 52.8087 64.4533 52.8087 64.4533C52.8087 64.4533 52.3287 64.1333 51.7064 63.7244C50.5776 62.9778 48.9864 61.92 48.9864 61.9467C48.9331 62.2933 48.9064 62.64 48.9153 62.96Z" fill="#ED232C"/>
<path d="M48.9153 62.96C48.9331 63.7066 49.1287 64.3288 49.5287 64.6933C50.1065 65.2177 52.8087 64.4533 52.8087 64.4533C52.8087 64.4533 52.3287 64.1333 51.7064 63.7244C51.4309 63.8222 50.8353 63.9555 50.3553 63.8933C49.8398 63.8133 49.1731 63.2088 48.9153 62.96Z" fill="#7E141A"/>
<path d="M44.5777 67.3511C44.5777 67.3511 43.1021 66.0622 42.5865 66.0089C42.5865 66.0089 43.8132 65.1111 45.4221 65.4667C46.9688 65.8044 47.4577 66.5422 47.6266 67.3511H44.5777Z" fill="#7E141A"/>
<path d="M44.6754 67.0844C44.4088 66.8533 43.7421 66.3022 43.191 65.9822C43.5288 65.8222 44.0532 65.6533 44.6576 65.6533C44.8976 65.6533 45.1288 65.68 45.3599 65.7333C46.631 66.0178 47.0754 66.5511 47.271 67.0933H44.6754V67.0844Z" fill="#ED232C"/>
<path d="M52.1865 67.3511C52.1865 67.3511 53.662 66.0622 54.1776 66.0089C54.1776 66.0089 52.9509 65.1111 51.342 65.4667C49.7953 65.8044 49.4309 66.5244 49.1376 67.3511H52.1865Z" fill="#7E141A"/>
<path d="M49.5288 67.0844C49.7955 66.4622 50.2044 65.9911 51.3955 65.7244C51.6266 65.6711 51.8666 65.6444 52.0977 65.6444C52.711 65.6444 53.2266 65.8133 53.5644 65.9733C53.0133 66.2933 52.3466 66.8533 52.0799 67.0844H49.5288Z" fill="#ED232C"/>
<defs>
<linearGradient id="paint0_linear" x1="48.7781" y1="12.8338" x2="48.6003" y2="82.3449" gradientUnits="userSpaceOnUse">
<stop stop-color="white"/>
<stop offset="0.0921685" stop-color="#FEF7F7"/>
<stop offset="0.2375" stop-color="#FCE0E1"/>
<stop offset="0.4178" stop-color="#F9BBBD"/>
<stop offset="0.6259" stop-color="#F5888B"/>
<stop offset="0.8547" stop-color="#F0474D"/>
<stop offset="1" stop-color="#EC1A21"/>
</linearGradient>
<linearGradient id="paint1_linear" x1="17.6459" y1="79.8748" x2="17.5275" y2="68.9262" gradientUnits="userSpaceOnUse">
<stop stop-color="white" stop-opacity="0"/>
<stop offset="0.3268" stop-color="#FDFDFD" stop-opacity="0.3268"/>
<stop offset="0.4636" stop-color="#F6F6F6" stop-opacity="0.4636"/>
<stop offset="0.5649" stop-color="#E9E9E9" stop-opacity="0.5649"/>
<stop offset="0.6487" stop-color="#D8D8D8" stop-opacity="0.6487"/>
<stop offset="0.7217" stop-color="#C1C1C1" stop-opacity="0.7217"/>
<stop offset="0.7871" stop-color="#A4A4A4" stop-opacity="0.7871"/>
<stop offset="0.847" stop-color="#838383" stop-opacity="0.847"/>
<stop offset="0.9025" stop-color="#5B5B5B" stop-opacity="0.9025"/>
<stop offset="0.9523" stop-color="#313131" stop-opacity="0.9523"/>
<stop offset="1"/>
</linearGradient>
<linearGradient id="paint2_linear" x1="23.768" y1="79.7282" x2="23.6505" y2="68.8617" gradientUnits="userSpaceOnUse">
<stop stop-color="white" stop-opacity="0"/>
<stop offset="0.3268" stop-color="#FDFDFD" stop-opacity="0.3268"/>
<stop offset="0.4636" stop-color="#F6F6F6" stop-opacity="0.4636"/>
<stop offset="0.5649" stop-color="#E9E9E9" stop-opacity="0.5649"/>
<stop offset="0.6487" stop-color="#D8D8D8" stop-opacity="0.6487"/>
<stop offset="0.7217" stop-color="#C1C1C1" stop-opacity="0.7217"/>
<stop offset="0.7871" stop-color="#A4A4A4" stop-opacity="0.7871"/>
<stop offset="0.847" stop-color="#838383" stop-opacity="0.847"/>
<stop offset="0.9025" stop-color="#5B5B5B" stop-opacity="0.9025"/>
<stop offset="0.9523" stop-color="#313131" stop-opacity="0.9523"/>
<stop offset="1"/>
</linearGradient>
<linearGradient id="paint3_linear" x1="31.2055" y1="79.6029" x2="31.0886" y2="68.7834" gradientUnits="userSpaceOnUse">
<stop stop-color="white" stop-opacity="0"/>
<stop offset="0.3268" stop-color="#FDFDFD" stop-opacity="0.3268"/>
<stop offset="0.4636" stop-color="#F6F6F6" stop-opacity="0.4636"/>
<stop offset="0.5649" stop-color="#E9E9E9" stop-opacity="0.5649"/>
<stop offset="0.6487" stop-color="#D8D8D8" stop-opacity="0.6487"/>
<stop offset="0.7217" stop-color="#C1C1C1" stop-opacity="0.7217"/>
<stop offset="0.7871" stop-color="#A4A4A4" stop-opacity="0.7871"/>
<stop offset="0.847" stop-color="#838383" stop-opacity="0.847"/>
<stop offset="0.9025" stop-color="#5B5B5B" stop-opacity="0.9025"/>
<stop offset="0.9523" stop-color="#313131" stop-opacity="0.9523"/>
<stop offset="1"/>
</linearGradient>
<linearGradient id="paint4_linear" x1="38.1687" y1="79.509" x2="38.0519" y2="68.7099" gradientUnits="userSpaceOnUse">
<stop stop-color="white" stop-opacity="0"/>
<stop offset="0.3268" stop-color="#FDFDFD" stop-opacity="0.3268"/>
<stop offset="0.4636" stop-color="#F6F6F6" stop-opacity="0.4636"/>
<stop offset="0.5649" stop-color="#E9E9E9" stop-opacity="0.5649"/>
<stop offset="0.6487" stop-color="#D8D8D8" stop-opacity="0.6487"/>
<stop offset="0.7217" stop-color="#C1C1C1" stop-opacity="0.7217"/>
<stop offset="0.7871" stop-color="#A4A4A4" stop-opacity="0.7871"/>
<stop offset="0.847" stop-color="#838383" stop-opacity="0.847"/>
<stop offset="0.9025" stop-color="#5B5B5B" stop-opacity="0.9025"/>
<stop offset="0.9523" stop-color="#313131" stop-opacity="0.9523"/>
<stop offset="1"/>
</linearGradient>
<linearGradient id="paint5_linear" x1="44.9772" y1="79.443" x2="44.8603" y2="68.6371" gradientUnits="userSpaceOnUse">
<stop stop-color="white" stop-opacity="0"/>
<stop offset="0.3268" stop-color="#FDFDFD" stop-opacity="0.3268"/>
<stop offset="0.4636" stop-color="#F6F6F6" stop-opacity="0.4636"/>
<stop offset="0.5649" stop-color="#E9E9E9" stop-opacity="0.5649"/>
<stop offset="0.6487" stop-color="#D8D8D8" stop-opacity="0.6487"/>
<stop offset="0.7217" stop-color="#C1C1C1" stop-opacity="0.7217"/>
<stop offset="0.7871" stop-color="#A4A4A4" stop-opacity="0.7871"/>
<stop offset="0.847" stop-color="#838383" stop-opacity="0.847"/>
<stop offset="0.9025" stop-color="#5B5B5B" stop-opacity="0.9025"/>
<stop offset="0.9523" stop-color="#313131" stop-opacity="0.9523"/>
<stop offset="1"/>
</linearGradient>
<linearGradient id="paint6_linear" x1="51.5271" y1="79.3673" x2="51.4104" y2="68.5678" gradientUnits="userSpaceOnUse">
<stop stop-color="white" stop-opacity="0"/>
<stop offset="0.3268" stop-color="#FDFDFD" stop-opacity="0.3268"/>
<stop offset="0.4636" stop-color="#F6F6F6" stop-opacity="0.4636"/>
<stop offset="0.5649" stop-color="#E9E9E9" stop-opacity="0.5649"/>
<stop offset="0.6487" stop-color="#D8D8D8" stop-opacity="0.6487"/>
<stop offset="0.7217" stop-color="#C1C1C1" stop-opacity="0.7217"/>
<stop offset="0.7871" stop-color="#A4A4A4" stop-opacity="0.7871"/>
<stop offset="0.847" stop-color="#838383" stop-opacity="0.847"/>
<stop offset="0.9025" stop-color="#5B5B5B" stop-opacity="0.9025"/>
<stop offset="0.9523" stop-color="#313131" stop-opacity="0.9523"/>
<stop offset="1"/>
</linearGradient>
<linearGradient id="paint7_linear" x1="58.1536" y1="79.2972" x2="58.0368" y2="68.4974" gradientUnits="userSpaceOnUse">
<stop stop-color="white" stop-opacity="0"/>
<stop offset="0.3268" stop-color="#FDFDFD" stop-opacity="0.3268"/>
<stop offset="0.4636" stop-color="#F6F6F6" stop-opacity="0.4636"/>
<stop offset="0.5649" stop-color="#E9E9E9" stop-opacity="0.5649"/>
<stop offset="0.6487" stop-color="#D8D8D8" stop-opacity="0.6487"/>
<stop offset="0.7217" stop-color="#C1C1C1" stop-opacity="0.7217"/>
<stop offset="0.7871" stop-color="#A4A4A4" stop-opacity="0.7871"/>
<stop offset="0.847" stop-color="#838383" stop-opacity="0.847"/>
<stop offset="0.9025" stop-color="#5B5B5B" stop-opacity="0.9025"/>
<stop offset="0.9523" stop-color="#313131" stop-opacity="0.9523"/>
<stop offset="1"/>
</linearGradient>
<linearGradient id="paint8_linear" x1="64.4608" y1="79.2539" x2="64.3438" y2="68.4284" gradientUnits="userSpaceOnUse">
<stop stop-color="white" stop-opacity="0"/>
<stop offset="0.3268" stop-color="#FDFDFD" stop-opacity="0.3268"/>
<stop offset="0.4636" stop-color="#F6F6F6" stop-opacity="0.4636"/>
<stop offset="0.5649" stop-color="#E9E9E9" stop-opacity="0.5649"/>
<stop offset="0.6487" stop-color="#D8D8D8" stop-opacity="0.6487"/>
<stop offset="0.7217" stop-color="#C1C1C1" stop-opacity="0.7217"/>
<stop offset="0.7871" stop-color="#A4A4A4" stop-opacity="0.7871"/>
<stop offset="0.847" stop-color="#838383" stop-opacity="0.847"/>
<stop offset="0.9025" stop-color="#5B5B5B" stop-opacity="0.9025"/>
<stop offset="0.9523" stop-color="#313131" stop-opacity="0.9523"/>
<stop offset="1"/>
</linearGradient>
<linearGradient id="paint9_linear" x1="67.496" y1="79.2301" x2="67.3789" y2="68.3954" gradientUnits="userSpaceOnUse">
<stop stop-color="white" stop-opacity="0"/>
<stop offset="0.3268" stop-color="#FDFDFD" stop-opacity="0.3268"/>
<stop offset="0.4636" stop-color="#F6F6F6" stop-opacity="0.4636"/>
<stop offset="0.5649" stop-color="#E9E9E9" stop-opacity="0.5649"/>
<stop offset="0.6487" stop-color="#D8D8D8" stop-opacity="0.6487"/>
<stop offset="0.7217" stop-color="#C1C1C1" stop-opacity="0.7217"/>
<stop offset="0.7871" stop-color="#A4A4A4" stop-opacity="0.7871"/>
<stop offset="0.847" stop-color="#838383" stop-opacity="0.847"/>
<stop offset="0.9025" stop-color="#5B5B5B" stop-opacity="0.9025"/>
<stop offset="0.9523" stop-color="#313131" stop-opacity="0.9523"/>
<stop offset="1"/>
</linearGradient>
<linearGradient id="paint10_linear" x1="72.8959" y1="79.211" x2="72.7783" y2="68.3345" gradientUnits="userSpaceOnUse">
<stop stop-color="white" stop-opacity="0"/>
<stop offset="0.3268" stop-color="#FDFDFD" stop-opacity="0.3268"/>
<stop offset="0.4636" stop-color="#F6F6F6" stop-opacity="0.4636"/>
<stop offset="0.5649" stop-color="#E9E9E9" stop-opacity="0.5649"/>
<stop offset="0.6487" stop-color="#D8D8D8" stop-opacity="0.6487"/>
<stop offset="0.7217" stop-color="#C1C1C1" stop-opacity="0.7217"/>
<stop offset="0.7871" stop-color="#A4A4A4" stop-opacity="0.7871"/>
<stop offset="0.847" stop-color="#838383" stop-opacity="0.847"/>
<stop offset="0.9025" stop-color="#5B5B5B" stop-opacity="0.9025"/>
<stop offset="0.9523" stop-color="#313131" stop-opacity="0.9523"/>
<stop offset="1"/>
</linearGradient>
<linearGradient id="paint11_linear" x1="79.4073" y1="79.2182" x2="79.2888" y2="68.2582" gradientUnits="userSpaceOnUse">
<stop stop-color="white" stop-opacity="0"/>
<stop offset="0.3268" stop-color="#FDFDFD" stop-opacity="0.3268"/>
<stop offset="0.4636" stop-color="#F6F6F6" stop-opacity="0.4636"/>
<stop offset="0.5649" stop-color="#E9E9E9" stop-opacity="0.5649"/>
<stop offset="0.6487" stop-color="#D8D8D8" stop-opacity="0.6487"/>
<stop offset="0.7217" stop-color="#C1C1C1" stop-opacity="0.7217"/>
<stop offset="0.7871" stop-color="#A4A4A4" stop-opacity="0.7871"/>
<stop offset="0.847" stop-color="#838383" stop-opacity="0.847"/>
<stop offset="0.9025" stop-color="#5B5B5B" stop-opacity="0.9025"/>
<stop offset="0.9523" stop-color="#313131" stop-opacity="0.9523"/>
<stop offset="1"/>
</linearGradient>
<linearGradient id="paint12_linear" x1="17.6106" y1="71.0696" x2="17.5519" y2="77.6942" gradientUnits="userSpaceOnUse">
<stop stop-color="white" stop-opacity="0"/>
<stop offset="0.1176" stop-color="#FBFBFB" stop-opacity="0.1176"/>
<stop offset="0.2421" stop-color="#EEEEEE" stop-opacity="0.2421"/>
<stop offset="0.37" stop-color="#D9D9D9" stop-opacity="0.37"/>
<stop offset="0.5001" stop-color="#BBBBBB" stop-opacity="0.5001"/>
<stop offset="0.632" stop-color="#959595" stop-opacity="0.632"/>
<stop offset="0.7654" stop-color="#666666" stop-opacity="0.7654"/>
<stop offset="0.8974" stop-color="#303030" stop-opacity="0.8974"/>
<stop offset="1"/>
</linearGradient>
<linearGradient id="paint13_linear" x1="23.99" y1="71.1979" x2="23.9341" y2="77.5123" gradientUnits="userSpaceOnUse">
<stop stop-color="white" stop-opacity="0"/>
<stop offset="0.1176" stop-color="#FBFBFB" stop-opacity="0.1176"/>
<stop offset="0.2421" stop-color="#EEEEEE" stop-opacity="0.2421"/>
<stop offset="0.37" stop-color="#D9D9D9" stop-opacity="0.37"/>
<stop offset="0.5001" stop-color="#BBBBBB" stop-opacity="0.5001"/>
<stop offset="0.632" stop-color="#959595" stop-opacity="0.632"/>
<stop offset="0.7654" stop-color="#666666" stop-opacity="0.7654"/>
<stop offset="0.8974" stop-color="#303030" stop-opacity="0.8974"/>
<stop offset="1"/>
</linearGradient>
<linearGradient id="paint14_linear" x1="31.2051" y1="71.3697" x2="31.1535" y2="77.195" gradientUnits="userSpaceOnUse">
<stop stop-color="white" stop-opacity="0"/>
<stop offset="0.1176" stop-color="#FBFBFB" stop-opacity="0.1176"/>
<stop offset="0.2421" stop-color="#EEEEEE" stop-opacity="0.2421"/>
<stop offset="0.37" stop-color="#D9D9D9" stop-opacity="0.37"/>
<stop offset="0.5001" stop-color="#BBBBBB" stop-opacity="0.5001"/>
<stop offset="0.632" stop-color="#959595" stop-opacity="0.632"/>
<stop offset="0.7654" stop-color="#666666" stop-opacity="0.7654"/>
<stop offset="0.8974" stop-color="#303030" stop-opacity="0.8974"/>
<stop offset="1"/>
</linearGradient>
<linearGradient id="paint15_linear" x1="38.1072" y1="71.4699" x2="38.0576" y2="77.0705" gradientUnits="userSpaceOnUse">
<stop stop-color="white" stop-opacity="0"/>
<stop offset="0.1176" stop-color="#FBFBFB" stop-opacity="0.1176"/>
<stop offset="0.2421" stop-color="#EEEEEE" stop-opacity="0.2421"/>
<stop offset="0.37" stop-color="#D9D9D9" stop-opacity="0.37"/>
<stop offset="0.5001" stop-color="#BBBBBB" stop-opacity="0.5001"/>
<stop offset="0.632" stop-color="#959595" stop-opacity="0.632"/>
<stop offset="0.7654" stop-color="#666666" stop-opacity="0.7654"/>
<stop offset="0.8974" stop-color="#303030" stop-opacity="0.8974"/>
<stop offset="1"/>
</linearGradient>
<linearGradient id="paint16_linear" x1="44.929" y1="71.5708" x2="44.8815" y2="76.9458" gradientUnits="userSpaceOnUse">
<stop stop-color="white" stop-opacity="0"/>
<stop offset="0.1176" stop-color="#FBFBFB" stop-opacity="0.1176"/>
<stop offset="0.2421" stop-color="#EEEEEE" stop-opacity="0.2421"/>
<stop offset="0.37" stop-color="#D9D9D9" stop-opacity="0.37"/>
<stop offset="0.5001" stop-color="#BBBBBB" stop-opacity="0.5001"/>
<stop offset="0.632" stop-color="#959595" stop-opacity="0.632"/>
<stop offset="0.7654" stop-color="#666666" stop-opacity="0.7654"/>
<stop offset="0.8974" stop-color="#303030" stop-opacity="0.8974"/>
<stop offset="1"/>
</linearGradient>
<linearGradient id="paint17_linear" x1="51.4791" y1="71.6208" x2="51.4318" y2="76.9614" gradientUnits="userSpaceOnUse">
<stop stop-color="white" stop-opacity="0"/>
<stop offset="0.1176" stop-color="#FBFBFB" stop-opacity="0.1176"/>
<stop offset="0.2421" stop-color="#EEEEEE" stop-opacity="0.2421"/>
<stop offset="0.37" stop-color="#D9D9D9" stop-opacity="0.37"/>
<stop offset="0.5001" stop-color="#BBBBBB" stop-opacity="0.5001"/>
<stop offset="0.632" stop-color="#959595" stop-opacity="0.632"/>
<stop offset="0.7654" stop-color="#666666" stop-opacity="0.7654"/>
<stop offset="0.8974" stop-color="#303030" stop-opacity="0.8974"/>
<stop offset="1"/>
</linearGradient>
<linearGradient id="paint18_linear" x1="58.2318" y1="71.635" x2="58.1829" y2="77.1607" gradientUnits="userSpaceOnUse">
<stop stop-color="white" stop-opacity="0"/>
<stop offset="0.1176" stop-color="#FBFBFB" stop-opacity="0.1176"/>
<stop offset="0.2421" stop-color="#EEEEEE" stop-opacity="0.2421"/>
<stop offset="0.37" stop-color="#D9D9D9" stop-opacity="0.37"/>
<stop offset="0.5001" stop-color="#BBBBBB" stop-opacity="0.5001"/>
<stop offset="0.632" stop-color="#959595" stop-opacity="0.632"/>
<stop offset="0.7654" stop-color="#666666" stop-opacity="0.7654"/>
<stop offset="0.8974" stop-color="#303030" stop-opacity="0.8974"/>
<stop offset="1"/>
</linearGradient>
<linearGradient id="paint19_linear" x1="65.2774" y1="71.6322" x2="65.226" y2="77.4473" gradientUnits="userSpaceOnUse">
<stop stop-color="white" stop-opacity="0"/>
<stop offset="0.1176" stop-color="#FBFBFB" stop-opacity="0.1176"/>
<stop offset="0.2421" stop-color="#EEEEEE" stop-opacity="0.2421"/>
<stop offset="0.37" stop-color="#D9D9D9" stop-opacity="0.37"/>
<stop offset="0.5001" stop-color="#BBBBBB" stop-opacity="0.5001"/>
<stop offset="0.632" stop-color="#959595" stop-opacity="0.632"/>
<stop offset="0.7654" stop-color="#666666" stop-opacity="0.7654"/>
<stop offset="0.8974" stop-color="#303030" stop-opacity="0.8974"/>
<stop offset="1"/>
</linearGradient>
<linearGradient id="paint20_linear" x1="72.9113" y1="71.6316" x2="72.8567" y2="77.8043" gradientUnits="userSpaceOnUse">
<stop stop-color="white" stop-opacity="0"/>
<stop offset="0.1176" stop-color="#FBFBFB" stop-opacity="0.1176"/>
<stop offset="0.2421" stop-color="#EEEEEE" stop-opacity="0.2421"/>
<stop offset="0.37" stop-color="#D9D9D9" stop-opacity="0.37"/>
<stop offset="0.5001" stop-color="#BBBBBB" stop-opacity="0.5001"/>
<stop offset="0.632" stop-color="#959595" stop-opacity="0.632"/>
<stop offset="0.7654" stop-color="#666666" stop-opacity="0.7654"/>
<stop offset="0.8974" stop-color="#303030" stop-opacity="0.8974"/>
<stop offset="1"/>
</linearGradient>
<linearGradient id="paint21_linear" x1="79.3548" y1="71.617" x2="79.2966" y2="78.1995" gradientUnits="userSpaceOnUse">
<stop stop-color="white" stop-opacity="0"/>
<stop offset="0.1176" stop-color="#FBFBFB" stop-opacity="0.1176"/>
<stop offset="0.2421" stop-color="#EEEEEE" stop-opacity="0.2421"/>
<stop offset="0.37" stop-color="#D9D9D9" stop-opacity="0.37"/>
<stop offset="0.5001" stop-color="#BBBBBB" stop-opacity="0.5001"/>
<stop offset="0.632" stop-color="#959595" stop-opacity="0.632"/>
<stop offset="0.7654" stop-color="#666666" stop-opacity="0.7654"/>
<stop offset="0.8974" stop-color="#303030" stop-opacity="0.8974"/>
<stop offset="1"/>
</linearGradient>
</defs>
</svg>
